<svg width="217" height="216" viewBox="0 0 217 216" fill="none" xmlns="http://www.w3.org/2000/svg">
<path d="M212.564 103.544H209.724C207.574 103.544 205.784 101.884 205.594 99.7437C205.594 99.7137 205.594 99.6837 205.594 99.6637C205.404 97.5037 206.884 95.5637 209.014 95.1937L211.814 94.7037C214.054 94.3137 215.554 92.1737 215.164 89.9337L214.984 88.9337C214.594 86.6937 212.454 85.1937 210.214 85.5837L207.434 86.0737C205.304 86.4437 203.244 85.1237 202.694 83.0237C202.694 82.9937 202.684 82.9637 202.674 82.9437C202.124 80.8637 203.254 78.7137 205.274 77.9737L207.934 77.0137C210.074 76.2337 211.184 73.8737 210.404 71.7337L210.054 70.7737C209.274 68.6337 206.914 67.5237 204.774 68.3037L202.104 69.2737C200.084 70.0037 197.844 69.0737 196.924 67.1237C196.914 67.0937 196.904 67.0737 196.884 67.0437C195.964 65.0837 196.694 62.7437 198.564 61.6637L201.034 60.2437C203.004 59.1037 203.684 56.5837 202.554 54.6137L202.044 53.7337C200.904 51.7637 198.394 51.0837 196.414 52.2137L193.924 53.6437C192.054 54.7237 189.674 54.1837 188.434 52.4037C188.414 52.3837 188.404 52.3637 188.394 52.3437C187.164 50.5737 187.474 48.1637 189.134 46.7737L191.344 44.9337C193.094 43.4737 193.324 40.8737 191.864 39.1237L191.214 38.3437C189.754 36.5937 187.154 36.3637 185.404 37.8237L183.194 39.6737C181.544 41.0537 179.104 40.9437 177.584 39.4137C177.564 39.3937 177.544 39.3737 177.534 39.3637C176.004 37.8337 175.894 35.3937 177.294 33.7437L179.154 31.5437C180.624 29.8037 180.394 27.2037 178.654 25.7337L177.874 25.0737C176.134 23.6037 173.534 23.8337 172.064 25.5737L170.214 27.7737C168.824 29.4237 166.404 29.7337 164.644 28.4937C164.624 28.4837 164.604 28.4637 164.584 28.4537C162.814 27.2137 162.284 24.8337 163.374 22.9637L164.814 20.4737C165.954 18.5037 165.284 15.9837 163.314 14.8437L162.434 14.3337C160.464 13.1937 157.944 13.8637 156.804 15.8337L155.374 18.2937C154.284 20.1737 151.944 20.8937 149.984 19.9537C149.954 19.9437 149.934 19.9337 149.904 19.9137C147.964 18.9937 147.044 16.7437 147.784 14.7337L148.764 12.0637C149.544 9.92371 148.444 7.55371 146.314 6.77371L145.354 6.42371C143.214 5.64371 140.844 6.74371 140.064 8.87371L139.094 11.5237C138.354 13.5437 136.204 14.6637 134.124 14.1037C134.094 14.1037 134.064 14.0937 134.044 14.0837C131.954 13.5337 130.634 11.4637 131.014 9.33371L131.514 6.55371C131.914 4.31371 130.424 2.17371 128.184 1.77371L127.184 1.59372C124.944 1.19372 122.804 2.68371 122.404 4.92371L121.904 7.71371C121.524 9.84371 119.584 11.3237 117.424 11.1237C117.324 11.1237 117.234 11.1037 117.134 11.0937C114.994 10.9037 113.354 9.10371 113.354 6.95371V4.11371C113.354 1.83371 111.504 -0.00628662 109.234 -0.00628662H108.214C105.934 -0.00628662 104.094 1.84371 104.094 4.11371V6.95371C104.094 9.10371 102.454 10.8937 100.304 11.0937C100.274 11.0937 100.244 11.0937 100.224 11.0937C98.0637 11.2937 96.1237 9.81371 95.7437 7.67371L95.2537 4.88371C94.8537 2.64371 92.7237 1.14371 90.4837 1.54371L89.4837 1.72371C87.2437 2.12371 85.7437 4.25372 86.1437 6.50372L86.6337 9.28371C87.0137 11.4137 85.6837 13.4737 83.5837 14.0237C83.5537 14.0237 83.5237 14.0337 83.5037 14.0437C81.4237 14.5937 79.2737 13.4737 78.5337 11.4437L77.5637 8.79371C76.7837 6.65371 74.4237 5.55371 72.2837 6.33371L71.3237 6.68371C69.1837 7.46371 68.0837 9.82371 68.8637 11.9637L69.8337 14.6337C70.5637 16.6537 69.6437 18.8937 67.6937 19.8137C67.6637 19.8237 67.6437 19.8337 67.6137 19.8537C65.6537 20.7837 63.3137 20.0537 62.2337 18.1737L60.8137 15.7137C59.6737 13.7437 57.1537 13.0637 55.1837 14.2037L54.3037 14.7137C52.3337 15.8537 51.6537 18.3737 52.7937 20.3437L54.2337 22.8337C55.3137 24.7037 54.7837 27.0837 53.0037 28.3237C52.9837 28.3337 52.9637 28.3537 52.9437 28.3637C51.1737 29.6037 48.7637 29.2837 47.3737 27.6337L45.5237 25.4337C44.0637 23.6937 41.4637 23.4637 39.7137 24.9237L38.9337 25.5737C37.1937 27.0337 36.9637 29.6337 38.4237 31.3837L40.2737 33.5937C41.6637 35.2437 41.5537 37.6837 40.0237 39.2037C40.0037 39.2237 39.9837 39.2437 39.9737 39.2537C38.4437 40.7837 36.0137 40.8937 34.3537 39.5037L32.1437 37.6537C30.4037 36.1937 27.8037 36.4137 26.3337 38.1637L25.6837 38.9437C24.2237 40.6837 24.4437 43.2837 26.1937 44.7537L28.3937 46.6037C30.0437 47.9937 30.3637 50.4037 29.1237 52.1737C29.1137 52.1937 29.0937 52.2137 29.0837 52.2337C27.8437 54.0037 25.4637 54.5337 23.5937 53.4537L21.1037 52.0137C19.1337 50.8737 16.6137 51.5537 15.4737 53.5237L14.9637 54.4037C13.8237 56.3737 14.5037 58.8937 16.4737 60.0337L18.9337 61.4537C20.8137 62.5337 21.5337 64.8737 20.6037 66.8337C20.5937 66.8637 20.5837 66.8837 20.5637 66.9137C19.6437 68.8537 17.4037 69.7837 15.3837 69.0437L12.7137 68.0737C10.5737 67.2937 8.21372 68.3937 7.43372 70.5337L7.08371 71.4937C6.30371 73.6337 7.40373 75.9937 9.54373 76.7737L12.1937 77.7437C14.2137 78.4837 15.3337 80.6337 14.7837 82.7137C14.7837 82.7437 14.7637 82.7737 14.7637 82.7937C14.2137 84.8937 12.1537 86.2137 10.0237 85.8337L7.24371 85.3437C5.00371 84.9437 2.86371 86.4437 2.46371 88.6837L2.28372 89.6837C1.88372 91.9237 3.38372 94.0637 5.62372 94.4637L8.41373 94.9537C10.5437 95.3337 12.0237 97.2737 11.8237 99.4337C11.8237 99.4637 11.8237 99.4937 11.8237 99.5137C11.6237 101.654 9.83372 103.304 7.68372 103.304H4.84372C2.56372 103.304 0.723724 105.144 0.723724 107.424V108.444C0.723724 110.724 2.56372 112.564 4.84372 112.564H7.68372C9.83372 112.564 11.6237 114.214 11.8237 116.354C11.8237 116.384 11.8237 116.414 11.8237 116.434C12.0237 118.594 10.5337 120.534 8.40372 120.904L5.61371 121.394C3.37371 121.784 1.87373 123.924 2.26373 126.164L2.44373 127.164C2.83373 129.404 4.97371 130.904 7.21371 130.514L9.99371 130.024C12.1237 129.654 14.1837 130.974 14.7337 133.074C14.7337 133.104 14.7437 133.134 14.7537 133.154C15.3037 135.234 14.1737 137.384 12.1537 138.124L9.49371 139.084C7.35371 139.864 6.25371 142.224 7.02371 144.364L7.37372 145.324C8.15372 147.464 10.5137 148.564 12.6537 147.794L15.3237 146.824C17.3437 146.094 19.5837 147.024 20.5037 148.964C20.5137 148.994 20.5237 149.014 20.5437 149.044C21.4737 151.004 20.7437 153.344 18.8637 154.424L16.4037 155.844C14.4337 156.984 13.7537 159.504 14.8937 161.474L15.4037 162.354C16.5437 164.324 19.0637 165.004 21.0337 163.864L23.5237 162.424C25.3937 161.344 27.7737 161.884 29.0137 163.654C29.0237 163.674 29.0437 163.694 29.0537 163.714C30.2937 165.484 29.9737 167.894 28.3237 169.284L26.1237 171.134C24.3837 172.594 24.1537 175.194 25.6137 176.944L26.2637 177.724C27.7237 179.474 30.3237 179.704 32.0737 178.234L34.2837 176.384C35.9337 174.994 38.3737 175.114 39.8937 176.634C39.9137 176.654 39.9337 176.674 39.9437 176.684C41.4737 178.214 41.5837 180.644 40.1937 182.304L38.3437 184.514C36.8837 186.254 37.1037 188.854 38.8437 190.324L39.6237 190.974C41.3637 192.434 43.9637 192.214 45.4337 190.474L47.2837 188.274C48.6737 186.624 51.0937 186.314 52.8537 187.554C52.8737 187.564 52.8937 187.584 52.9137 187.594C54.6837 188.834 55.2137 191.214 54.1337 193.084L52.6937 195.574C51.5537 197.544 52.2237 200.064 54.1937 201.204L55.0737 201.714C57.0437 202.854 59.5637 202.184 60.7037 200.214L62.1237 197.754C63.2137 195.874 65.5537 195.154 67.5137 196.084C67.5437 196.094 67.5637 196.104 67.5937 196.124C69.5337 197.044 70.4637 199.284 69.7237 201.304L68.7537 203.974C67.9737 206.114 69.0737 208.474 71.2137 209.254L72.1737 209.604C74.3137 210.384 76.6737 209.284 77.4637 207.144L78.4337 204.494C79.1737 202.474 81.3237 201.354 83.4037 201.904C83.4337 201.904 83.4637 201.914 83.4837 201.924C85.5837 202.474 86.9037 204.534 86.5237 206.664L86.0337 209.444C85.6337 211.684 87.1337 213.824 89.3737 214.224L90.3737 214.404C92.6137 214.804 94.7537 213.304 95.1537 211.064L95.6437 208.274C96.0237 206.144 97.9637 204.664 100.124 204.864C100.154 204.864 100.184 204.864 100.214 204.864C102.354 205.064 103.994 206.854 103.994 209.004V211.844C103.994 214.124 105.834 215.964 108.104 215.964H109.124C111.404 215.964 113.244 214.124 113.254 211.844V209.004C113.254 206.854 114.904 205.064 117.054 204.874C117.084 204.874 117.114 204.874 117.134 204.874C119.294 204.684 121.234 206.164 121.604 208.294L122.094 211.094C122.484 213.334 124.624 214.834 126.864 214.444L127.864 214.264C130.104 213.874 131.604 211.734 131.214 209.494L130.724 206.714C130.354 204.584 131.674 202.524 133.774 201.974C133.804 201.974 133.834 201.964 133.854 201.954C135.934 201.404 138.084 202.534 138.824 204.554L139.784 207.214C140.564 209.354 142.924 210.464 145.064 209.684L146.024 209.334C148.164 208.554 149.274 206.194 148.494 204.054L147.524 201.384C146.794 199.364 147.724 197.124 149.664 196.204C149.684 196.194 149.714 196.184 149.744 196.164C151.704 195.244 154.044 195.964 155.124 197.844L156.544 200.314C157.684 202.284 160.204 202.964 162.174 201.834L163.054 201.324C165.024 200.184 165.704 197.664 164.574 195.694L163.144 193.204C162.064 191.334 162.604 188.954 164.374 187.714C164.394 187.704 164.414 187.684 164.434 187.674C166.204 186.444 168.614 186.754 170.004 188.414L171.854 190.614C173.314 192.364 175.914 192.594 177.664 191.134L178.444 190.484C180.194 189.024 180.424 186.424 178.964 184.674L177.114 182.464C175.734 180.814 175.844 178.374 177.374 176.854C177.394 176.834 177.414 176.814 177.424 176.804C178.954 175.274 181.384 175.164 183.044 176.554L185.254 178.414C186.994 179.884 189.594 179.654 191.064 177.914L191.724 177.134C193.194 175.394 192.964 172.794 191.224 171.324L189.024 169.474C187.374 168.084 187.064 165.664 188.304 163.904C188.324 163.884 188.334 163.864 188.354 163.844C189.594 162.074 191.974 161.544 193.844 162.624L196.334 164.064C198.304 165.204 200.824 164.534 201.964 162.564L202.474 161.684C203.614 159.714 202.944 157.194 200.974 156.054L198.514 154.634C196.634 153.544 195.914 151.204 196.844 149.244C196.854 149.214 196.864 149.194 196.884 149.164C197.804 147.224 200.044 146.304 202.064 147.034L204.734 148.014C206.874 148.794 209.234 147.694 210.024 145.554L210.374 144.594C211.154 142.454 210.054 140.094 207.914 139.304L205.254 138.334C203.234 137.594 202.114 135.444 202.664 133.364C202.664 133.334 202.674 133.304 202.684 133.284C203.234 131.194 205.294 129.864 207.434 130.244L210.214 130.734C212.454 131.134 214.594 129.634 214.994 127.394L215.174 126.394C215.574 124.154 214.074 122.014 211.834 121.614L209.044 121.114C206.914 120.734 205.434 118.784 205.634 116.634C205.634 116.604 205.634 116.574 205.634 116.544C205.834 114.404 207.624 112.764 209.774 112.764H212.604C214.884 112.764 216.724 110.934 216.734 108.654V107.634C216.734 105.354 214.894 103.514 212.624 103.504L212.564 103.544ZM28.1937 86.4237C35.8737 57.7937 58.4637 35.2137 87.0937 27.5237C92.2437 26.1437 97.4137 29.6637 97.9437 34.9637L102.714 81.9037C102.924 83.9737 101.754 85.9437 99.8237 86.7437C94.2237 89.0737 89.7437 93.5537 87.4137 99.1537C86.6137 101.074 84.6437 102.254 82.5737 102.044L35.6337 97.2737C30.3337 96.7337 26.8137 91.5637 28.1937 86.4237ZM102.704 134.114L97.9337 181.054C97.3937 186.354 92.2237 189.874 87.0837 188.494C58.4537 180.814 35.8737 158.224 28.1837 129.594C26.8037 124.444 30.3237 119.274 35.6237 118.744L82.5637 113.974C84.6337 113.764 86.6037 114.934 87.4037 116.864C89.7337 122.464 94.2137 126.944 99.8137 129.274C101.734 130.074 102.914 132.044 102.704 134.114ZM108.674 118.724C102.764 118.724 97.9637 113.934 97.9637 108.014C97.9637 102.094 102.754 97.3037 108.674 97.3037C114.594 97.3037 119.384 102.094 119.384 108.014C119.384 113.934 114.594 118.724 108.674 118.724ZM189.164 129.604C181.474 158.234 158.894 180.814 130.264 188.504C125.114 189.884 119.944 186.364 119.414 181.064L114.644 134.124C114.434 132.054 115.604 130.084 117.534 129.284C123.134 126.954 127.614 122.474 129.944 116.874C130.744 114.954 132.714 113.774 134.784 113.984L181.734 118.754C187.034 119.294 190.554 124.464 189.174 129.614L189.164 129.604ZM181.724 97.2837L134.784 102.054C132.714 102.264 130.744 101.094 129.944 99.1637C127.614 93.5637 123.134 89.0837 117.534 86.7537C115.614 85.9537 114.434 83.9837 114.644 81.9137L119.414 34.9737C119.954 29.6737 125.124 26.1537 130.264 27.5337C158.894 35.2237 181.474 57.8037 189.164 86.4337C190.544 91.5837 187.024 96.7537 181.724 97.2837Z" fill="#AA2500"/>
</svg>
