<svg width="140" height="140" viewBox="0 0 140 140" fill="none" xmlns="http://www.w3.org/2000/svg">
<path d="M136.534 78.6137L125.704 73.9837C125.794 72.6737 125.864 71.3537 125.864 70.0137C125.864 68.7837 125.814 67.5737 125.734 66.3637L136.584 61.7937C138.414 61.0237 139.424 59.0837 138.984 57.1737L137.874 52.3137C137.434 50.4037 135.684 49.0737 133.694 49.1437L121.914 49.5937C120.954 47.2137 119.844 44.9137 118.574 42.7137L126.334 33.9637C127.644 32.4937 127.694 30.3037 126.464 28.7737L123.324 24.8737C122.094 23.3437 119.924 22.8937 118.164 23.8037L107.734 29.2437C105.834 27.5237 103.824 25.9237 101.694 24.4737L104.834 13.2737C105.364 11.3837 104.454 9.39373 102.664 8.54373L98.1137 6.36373C96.3237 5.50373 94.1737 6.03373 92.9937 7.60373L86.0037 16.9437C83.4837 16.1837 80.8937 15.5937 78.2337 15.1837L76.0937 3.77374C75.7337 1.85374 74.0237 0.453735 72.0437 0.453735H66.9837C64.9937 0.453735 63.2937 1.85374 62.9337 3.77374L60.7937 15.1837C58.2137 15.5837 55.6937 16.1537 53.2337 16.8837L46.2737 7.51373C45.1037 5.93373 42.9537 5.40373 41.1637 6.25373L36.6037 8.41373C34.8137 9.26373 33.8937 11.2537 34.4137 13.1337L37.5137 24.3437C35.3837 25.7937 33.3537 27.3737 31.4537 29.0937L21.0537 23.6137C19.3037 22.6937 17.1337 23.1337 15.8937 24.6637L12.7437 28.5537C11.5037 30.0837 11.5437 32.2637 12.8537 33.7437L20.5837 42.5237C19.3037 44.7237 18.1837 47.0137 17.2137 49.3937L5.43369 48.9037C3.44369 48.8237 1.68369 50.1437 1.24369 52.0537L0.113684 56.9037C-0.326316 58.8137 0.673689 60.7637 2.49369 61.5337L13.3337 66.1437C13.2437 67.4237 13.1837 68.7037 13.1837 70.0037C13.1837 71.3037 13.2437 72.5137 13.3237 73.7637L2.48368 78.3537C0.653679 79.1237 -0.346275 81.0737 0.0937253 82.9837L1.21372 87.8337C1.65372 89.7437 3.41372 91.0737 5.40372 90.9937L17.1837 90.5237C18.1437 92.9037 19.2637 95.1937 20.5437 97.3937L12.8037 106.154C11.5037 107.634 11.4537 109.814 12.6837 111.344L15.8337 115.244C17.0737 116.774 19.2437 117.224 20.9937 116.304L31.4137 110.844C33.3137 112.564 35.3337 114.154 37.4637 115.604L34.3437 126.804C33.8137 128.694 34.7337 130.684 36.5237 131.534L41.0737 133.704C42.8637 134.554 45.0137 134.034 46.1937 132.454L53.1637 123.104C55.6137 123.834 58.1337 124.414 60.7237 124.814L62.8437 136.234C63.2037 138.164 64.9037 139.554 66.8937 139.564H71.9537C73.9437 139.574 75.6437 138.184 76.0137 136.264L78.1837 124.854C80.7637 124.464 83.2937 123.894 85.7437 123.164L92.6837 132.544C93.8537 134.124 96.0037 134.664 97.7937 133.814L102.354 131.664C104.144 130.814 105.074 128.834 104.554 126.944L101.484 115.734C103.614 114.284 105.644 112.704 107.554 110.994L117.944 116.484C119.694 117.414 121.864 116.974 123.114 115.444L126.274 111.564C127.514 110.034 127.474 107.854 126.174 106.374L118.464 97.5837C119.744 95.3837 120.874 93.0937 121.854 90.7237L133.634 91.2337C135.624 91.3237 137.384 90.0037 137.834 88.0937L138.974 83.2437C139.424 81.3337 138.424 79.3837 136.604 78.6037L136.534 78.6137ZM69.5237 113.754C44.9937 113.754 25.1037 94.1737 25.1037 70.0137C25.1037 45.8537 44.9937 26.2737 69.5237 26.2737C94.0537 26.2737 113.944 45.8537 113.944 70.0137C113.944 94.1737 94.0537 113.754 69.5237 113.754Z" fill="#BB6618"/>
<path d="M69.5237 38.0237C51.5837 38.0237 37.0437 52.3437 37.0437 70.0137C37.0437 87.6837 51.5837 102.004 69.5237 102.004C87.4637 102.004 102.004 87.6837 102.004 70.0137C102.004 52.3437 87.4637 38.0237 69.5237 38.0237ZM69.5237 88.5537C59.1237 88.5537 50.6937 80.2537 50.6937 70.0137C50.6937 59.7737 59.1237 51.4737 69.5237 51.4737C79.9237 51.4737 88.3537 59.7737 88.3537 70.0137C88.3537 80.2537 79.9237 88.5537 69.5237 88.5537Z" fill="#BB6618"/>
</svg>
