<svg width="289" height="288" viewBox="0 0 289 288" fill="none" xmlns="http://www.w3.org/2000/svg">
<path d="M285.704 146.764C281.824 145.184 277.024 143.774 271.844 142.584C271.814 140.024 271.694 137.484 271.514 134.964C276.584 133.354 281.254 131.554 284.994 129.664C286.394 128.954 287.184 127.464 286.984 125.914L286.894 125.244C286.694 123.694 285.544 122.444 284.014 122.124C279.914 121.244 274.934 120.684 269.624 120.414C269.154 117.904 268.614 115.414 268.004 112.964C272.714 110.504 276.994 107.914 280.354 105.404C281.604 104.464 282.134 102.854 281.664 101.364L281.464 100.724C280.994 99.2337 279.644 98.2037 278.084 98.1437C273.884 97.9937 268.874 98.3037 263.594 98.9637C262.694 96.5837 261.724 94.2437 260.694 91.9337C264.914 88.6837 268.704 85.3837 271.574 82.3137C272.644 81.1737 272.884 79.4937 272.164 78.1037L271.854 77.5037C271.134 76.1137 269.624 75.3437 268.074 75.5537C263.914 76.1337 259.014 77.3137 253.924 78.8837C252.624 76.7037 251.274 74.5637 249.854 72.4737C253.454 68.5337 256.614 64.6137 258.924 61.0937C259.784 59.7837 259.724 58.0937 258.774 56.8437L258.364 56.3137C257.414 55.0737 255.794 54.5637 254.304 55.0537C250.294 56.3437 245.684 58.3637 240.924 60.7937C239.274 58.8737 237.574 57.0037 235.814 55.1837C238.684 50.6737 241.114 46.2637 242.774 42.3937C243.394 40.9537 243.044 39.2937 241.894 38.2337L241.404 37.7737C240.254 36.7137 238.574 36.5037 237.194 37.2337C233.474 39.2037 229.284 41.9837 225.034 45.2037C223.074 43.5937 221.074 42.0437 219.024 40.5537C221.054 35.6237 222.684 30.8737 223.644 26.7737C224.004 25.2537 223.364 23.6737 222.054 22.8337L221.484 22.4737C220.164 21.6337 218.474 21.7137 217.244 22.6737C213.934 25.2537 210.294 28.7037 206.674 32.6037C204.464 31.3537 202.214 30.1837 199.934 29.0637C201.084 23.8737 201.854 18.9137 202.084 14.7237C202.174 13.1637 201.274 11.7237 199.834 11.1237L199.214 10.8637C197.774 10.2637 196.114 10.6337 195.064 11.7937C192.244 14.9037 189.264 18.9437 186.374 23.4137C183.954 22.5637 181.494 21.7837 179.004 21.0737C179.224 15.7537 179.124 10.7337 178.624 6.56373C178.434 5.01373 177.304 3.75373 175.774 3.41373L175.114 3.26373C173.584 2.92373 172.024 3.58373 171.194 4.90373C168.964 8.46373 166.724 12.9737 164.654 17.8837C163.514 17.6937 162.384 17.4637 161.234 17.3037V17.2537H160.814C159.594 17.0937 158.354 17.0137 157.124 16.8837C156.414 11.5937 155.444 6.66373 154.224 2.64373C153.774 1.14373 152.434 0.103733 150.874 0.0337327L150.204 0.0037327C148.644 -0.0662673 147.214 0.853733 146.634 2.30373C145.064 6.18373 143.644 10.9937 142.464 16.1737C139.904 16.2037 137.364 16.2937 134.844 16.4837C133.234 11.4237 131.424 6.75373 129.534 3.01373C128.824 1.61373 127.334 0.823733 125.784 1.02373L125.114 1.11373C123.564 1.31373 122.324 2.46373 121.994 3.99373C121.114 8.09373 120.554 13.0837 120.294 18.4037C117.784 18.8737 115.314 19.4237 112.864 20.0437C110.394 15.3237 107.794 11.0337 105.284 7.67373C104.344 6.42373 102.734 5.89373 101.244 6.36373L100.604 6.56373C99.1137 7.03373 98.0837 8.38373 98.0337 9.94373C97.8837 14.1437 98.1937 19.1637 98.8637 24.4537C96.4837 25.3537 94.1437 26.3237 91.8437 27.3537C88.5937 23.1237 85.2737 19.3437 82.2137 16.4637C81.0737 15.3937 79.3937 15.1537 78.0037 15.8737L77.4037 16.1837C76.0137 16.9037 75.2437 18.4137 75.4537 19.9637C76.0337 24.1337 77.2237 29.0337 78.7937 34.1337C76.6137 35.4337 74.4837 36.7837 72.3937 38.2037C68.4537 34.6037 64.5237 31.4437 60.9937 29.1337C59.6837 28.2737 57.9937 28.3337 56.7437 29.2837L56.2137 29.6937C54.9737 30.6437 54.4737 32.2637 54.9537 33.7537C56.2537 37.7637 58.2737 42.3837 60.7137 47.1337C58.7937 48.7837 56.9237 50.4837 55.1137 52.2437C50.6037 49.3837 46.1937 46.9537 42.3137 45.2937C40.8737 44.6737 39.2137 45.0337 38.1537 46.1837L37.7037 46.6737C36.6437 47.8237 36.4337 49.5037 37.1637 50.8837C39.1337 54.6037 41.9137 58.7837 45.1337 63.0337C43.5237 64.9937 41.9737 66.9937 40.4837 69.0437C35.5637 67.0137 30.8037 65.3937 26.7137 64.4337C25.1937 64.0737 23.6137 64.7137 22.7737 66.0237L22.4137 66.5937C21.5737 67.9137 21.6537 69.6037 22.6137 70.8337C25.1937 74.1337 28.6437 77.7637 32.5337 81.3737C31.2837 83.5837 30.1037 85.8437 28.9937 88.1337C23.8137 86.9937 18.8637 86.2337 14.6837 85.9937C13.1237 85.9037 11.6837 86.8037 11.0837 88.2437L10.8237 88.8637C10.2237 90.3037 10.5937 91.9637 11.7637 93.0037C14.8837 95.8137 18.9237 98.7937 23.3937 101.684C22.5537 104.074 21.8037 106.494 21.1037 108.934C15.7737 108.714 10.7537 108.814 6.57373 109.314C5.02373 109.504 3.76373 110.634 3.42373 112.164L3.27373 112.814C2.93373 114.344 3.59373 115.904 4.91373 116.734C8.46373 118.964 12.9637 121.194 17.8637 123.254C17.4537 125.754 17.1137 128.264 16.8437 130.804C11.5737 131.504 6.66373 132.484 2.64373 133.694C1.14373 134.144 0.103733 135.484 0.0337327 137.044L0.0037327 137.714C-0.0662673 139.274 0.853733 140.704 2.30373 141.284C6.18373 142.854 10.9837 144.274 16.1637 145.454C16.1937 148.014 16.3037 150.554 16.4837 153.074C11.4237 154.684 6.75373 156.494 3.01373 158.384C1.61373 159.094 0.823733 160.584 1.02373 162.134L1.11373 162.804C1.31373 164.354 2.46373 165.594 3.99373 165.924C8.09373 166.804 13.0637 167.364 18.3737 167.624C18.8437 170.134 19.3837 172.624 20.0037 175.084C15.3037 177.544 11.0237 180.134 7.66373 182.644C6.41373 183.584 5.88373 185.194 6.35373 186.684L6.55373 187.324C7.02373 188.814 8.37373 189.844 9.93373 189.894C14.1137 190.044 19.1037 189.734 24.3637 189.074C25.2637 191.464 26.2637 193.804 27.3037 196.124C23.0937 199.364 19.3137 202.664 16.4537 205.724C15.3837 206.864 15.1437 208.544 15.8637 209.934L16.1737 210.534C16.8937 211.924 18.4037 212.694 19.9537 212.484C24.1237 211.904 29.0137 210.724 34.1037 209.144C35.4037 211.324 36.7537 213.464 38.1737 215.554C34.5737 219.494 31.4137 223.414 29.1137 226.934C28.2537 228.244 28.3137 229.934 29.2637 231.184L29.6737 231.714C30.6237 232.954 32.2437 233.454 33.7337 232.974C37.7337 231.684 42.3437 229.664 47.0937 227.234C48.7437 229.154 50.4637 231.004 52.2237 232.824C49.3537 237.334 46.9237 241.754 45.2637 245.624C44.6437 247.064 44.9937 248.724 46.1537 249.784L46.6437 250.244C47.7937 251.304 49.4737 251.514 50.8537 250.784C54.5737 248.814 58.7637 246.024 63.0237 242.804C64.9837 244.414 66.9737 245.984 69.0237 247.474C66.9937 252.394 65.3737 257.144 64.4137 261.234C64.0537 262.754 64.6937 264.334 66.0037 265.174L66.5737 265.534C67.8937 266.374 69.5837 266.294 70.8137 265.334C74.1237 262.754 77.7637 259.284 81.3937 255.384C81.9937 255.724 82.5637 256.094 83.1637 256.424L83.4537 256.634L83.4837 256.584C85.0037 257.404 86.5737 258.154 88.1237 258.914C86.9837 264.114 86.2037 269.074 85.9737 273.274C85.8837 274.834 86.7837 276.274 88.2237 276.874L88.8437 277.134C90.2837 277.734 91.9437 277.364 92.9837 276.204C95.7937 273.094 98.7737 269.054 101.664 264.584C104.054 265.424 106.474 266.194 108.924 266.894C108.704 272.204 108.804 277.224 109.304 281.384C109.494 282.934 110.624 284.194 112.144 284.544L112.804 284.694C114.334 285.034 115.894 284.384 116.724 283.054C118.954 279.504 121.184 275.004 123.254 270.104C125.744 270.514 128.264 270.854 130.804 271.114C131.504 276.384 132.474 281.304 133.694 285.324C134.144 286.824 135.484 287.864 137.044 287.934L137.714 287.964C139.274 288.034 140.704 287.114 141.294 285.664C142.874 281.784 144.284 276.974 145.474 271.794C148.034 271.764 150.574 271.674 153.104 271.494C154.704 276.554 156.514 281.224 158.404 284.954C159.114 286.354 160.604 287.144 162.154 286.944L162.824 286.854C164.374 286.654 165.614 285.504 165.944 283.974C166.824 279.884 167.384 274.924 167.644 269.624C170.164 269.154 172.644 268.594 175.114 267.984C177.574 272.684 180.154 276.964 182.664 280.304C183.604 281.554 185.214 282.084 186.704 281.614L187.344 281.414C188.834 280.944 189.864 279.594 189.914 278.034C190.064 273.844 189.754 268.844 189.094 263.574C191.474 262.674 193.824 261.704 196.144 260.664C199.384 264.884 202.694 268.654 205.744 271.524C206.884 272.594 208.564 272.834 209.954 272.114L210.554 271.804C211.944 271.084 212.714 269.574 212.504 268.024C211.924 263.854 210.744 258.964 209.174 253.864C211.354 252.564 213.484 251.204 215.574 249.784C219.514 253.394 223.444 256.554 226.974 258.864C228.284 259.724 229.974 259.664 231.224 258.714L231.754 258.304C232.994 257.354 233.504 255.734 233.014 254.244C231.714 250.224 229.694 245.604 227.254 240.834C228.754 239.534 230.274 238.244 231.714 236.884L232.464 236.344L232.384 236.254C232.554 236.094 232.714 235.914 232.884 235.754C237.394 238.624 241.804 241.054 245.674 242.714C247.114 243.334 248.774 242.984 249.834 241.834L250.294 241.344C251.354 240.194 251.564 238.514 250.834 237.134C248.864 233.404 246.074 229.204 242.844 224.944C244.444 222.994 245.994 220.994 247.484 218.954C252.424 220.994 257.194 222.624 261.294 223.584C262.814 223.944 264.394 223.304 265.234 221.994L265.594 221.424C266.434 220.104 266.354 218.414 265.394 217.184C262.814 213.874 259.364 210.234 255.464 206.614C256.714 204.404 257.884 202.154 259.004 199.864C264.194 201.004 269.154 201.784 273.344 202.014C274.904 202.104 276.344 201.204 276.944 199.764L277.204 199.144C277.804 197.704 277.434 196.044 276.274 194.994C273.164 192.184 269.134 189.204 264.664 186.324C265.504 183.934 266.284 181.514 266.984 179.064C272.294 179.284 277.294 179.184 281.464 178.694C283.014 178.504 284.274 177.374 284.624 175.854L284.774 175.194C285.114 173.664 284.464 172.104 283.134 171.274C279.594 169.054 275.114 166.824 270.224 164.764C270.634 162.264 270.984 159.734 271.254 157.184C276.504 156.484 281.404 155.514 285.414 154.304C286.914 153.854 287.954 152.514 288.034 150.954L288.064 150.284C288.134 148.724 287.214 147.294 285.774 146.704L285.704 146.764ZM152.234 105.694L158.534 45.3537C159.364 37.3937 166.304 32.8137 174.014 34.9737C199.734 42.2037 222.504 58.5537 237.434 81.4937C241.464 87.6837 238.764 96.0337 232.004 98.9837L176.444 123.294C174.014 124.354 171.104 123.774 169.434 121.704C165.884 117.314 161.274 113.964 156.124 111.904C153.584 110.894 151.964 108.394 152.244 105.674L152.234 105.694ZM144.024 125.974C153.014 125.974 160.294 133.264 160.294 142.244C160.294 151.224 153.004 158.514 144.024 158.514C135.044 158.514 127.754 151.224 127.754 142.244C127.754 133.264 135.044 125.974 144.024 125.974ZM51.1037 80.8437C65.8637 58.5837 88.4037 41.9137 114.814 34.7237C121.934 32.7837 129.054 37.9137 129.804 45.2537L135.924 105.594C136.194 108.234 134.744 110.824 132.264 111.784C126.914 113.854 122.244 117.284 118.684 121.664C117.024 123.714 114.144 124.294 111.724 123.234L56.2237 98.7537C48.9037 95.5237 46.6637 87.5137 51.0837 80.8437H51.1037ZM75.4837 212.254C70.1437 218.214 61.8337 217.864 56.8637 211.594C40.2637 190.664 31.3937 164.074 32.7437 136.734C33.1037 129.364 40.1837 124.174 47.3937 125.744L106.724 138.624C109.394 139.204 111.254 141.514 111.424 144.244C111.764 149.794 113.524 155.124 116.454 159.744C117.914 162.054 117.774 165.024 115.944 167.064L75.4737 212.264L75.4837 212.254ZM182.964 246.604C157.924 255.904 129.894 256.104 104.314 246.354C97.4137 243.724 94.6837 235.394 98.4037 229.014L129.024 176.584C130.404 174.224 133.184 173.164 135.824 173.854C141.204 175.254 146.824 175.224 152.124 173.874C154.774 173.194 157.554 174.254 158.924 176.624L189.364 229.104C193.384 236.024 190.474 243.814 182.964 246.604ZM230.714 212.244C226.084 217.984 217.304 218.014 212.394 212.494L172.024 167.144C170.204 165.104 170.064 162.134 171.534 159.834C174.524 155.144 176.244 149.804 176.594 144.344C176.774 141.614 178.644 139.294 181.314 138.724L240.634 126.024C248.464 124.344 254.964 129.524 255.294 137.524C256.384 164.214 247.894 190.934 230.704 212.234L230.714 212.244Z" fill="#E19E61"/>
</svg>
