<svg width="210" height="210" viewBox="0 0 210 210" fill="none" xmlns="http://www.w3.org/2000/svg">
<path d="M207.584 102.334C204.634 101.284 200.974 100.394 197.054 99.6937C196.954 97.9037 196.794 96.1337 196.594 94.3737C200.344 93.0137 203.784 91.5037 206.514 89.9637C207.504 89.4037 208.034 88.2937 207.834 87.1837L207.754 86.7037C207.554 85.5837 206.684 84.7237 205.564 84.5337C202.474 84.0137 198.724 83.7737 194.744 83.7637C194.334 82.0237 193.874 80.3037 193.364 78.6037C196.814 76.6137 199.944 74.5237 202.364 72.5337C203.244 71.8137 203.564 70.6337 203.184 69.5637L203.014 69.1037C202.624 68.0337 201.614 67.3437 200.484 67.3537C197.354 67.3837 193.614 67.7837 189.684 68.4737C188.974 66.8437 188.224 65.2337 187.424 63.6437C190.484 61.0837 193.204 58.4837 195.244 56.0937C195.984 55.2337 196.104 54.0137 195.534 53.0237L195.294 52.6037C194.724 51.6237 193.614 51.1137 192.494 51.3137C189.404 51.8837 185.784 52.9437 182.024 54.3037C181.044 52.8237 180.034 51.3637 178.974 49.9437C181.544 46.8837 183.784 43.8437 185.384 41.1337C185.964 40.1537 185.864 38.9337 185.134 38.0637L184.824 37.6937C184.094 36.8237 182.904 36.5137 181.844 36.9137C178.894 38.0137 175.514 39.6837 172.044 41.6837C170.834 40.3937 169.584 39.1437 168.294 37.9237C170.304 34.4537 171.974 31.0737 173.084 28.1337C173.484 27.0737 173.174 25.8837 172.304 25.1537L171.934 24.8437C171.064 24.1137 169.844 24.0137 168.864 24.5937C166.154 26.1837 163.114 28.4137 160.044 30.9837C158.624 29.9237 157.174 28.9037 155.694 27.9237C157.064 24.1637 158.124 20.5437 158.704 17.4637C158.914 16.3537 158.404 15.2337 157.424 14.6637L157.004 14.4237C156.024 13.8537 154.804 13.9737 153.934 14.7037C151.544 16.7437 148.944 19.4537 146.374 22.5137C144.794 21.7137 143.184 20.9637 141.544 20.2537C142.244 16.3237 142.654 12.5837 142.684 9.45372C142.694 8.32372 142.004 7.30372 140.934 6.91372L140.474 6.74372C139.404 6.35372 138.224 6.68372 137.504 7.55372C135.514 9.97372 133.424 13.0937 131.424 16.5437C129.724 16.0337 128.004 15.5637 126.264 15.1537C126.264 11.1737 126.024 7.42372 125.514 4.33372C125.334 3.21372 124.464 2.33372 123.354 2.14372L122.874 2.05372C121.754 1.85372 120.644 2.38372 120.084 3.37372C118.544 6.10372 117.024 9.54372 115.654 13.2837C113.864 13.0737 112.064 12.9137 110.254 12.8137C109.564 8.88372 108.664 5.23372 107.624 2.28372C107.244 1.21372 106.244 0.503723 105.114 0.503723H104.624C103.494 0.503723 102.484 1.21372 102.114 2.28372C101.074 5.24372 100.174 8.89372 99.4837 12.8137C97.6937 12.9137 95.9237 13.0737 94.1637 13.2737C92.8037 9.52372 91.2837 6.08372 89.7437 3.36372C89.1837 2.37372 88.0737 1.84372 86.9637 2.04372L86.4837 2.12372C85.3637 2.32372 84.5037 3.19372 84.3137 4.31372C83.8037 7.40372 83.5537 11.1537 83.5537 15.1337C81.8137 15.5437 80.0937 16.0137 78.3937 16.5137C76.4037 13.0637 74.3137 9.93372 72.3237 7.52372C71.6037 6.64372 70.4237 6.32372 69.3537 6.70372L68.8937 6.87372C67.8237 7.26372 67.1337 8.27372 67.1437 9.40372C67.1737 12.5337 67.5837 16.2737 68.2737 20.2037C66.6437 20.9137 65.0337 21.6637 63.4437 22.4637C60.8737 19.4037 58.2737 16.6837 55.8937 14.6437C55.0337 13.9037 53.8137 13.7937 52.8237 14.3537L52.4037 14.5937C51.4237 15.1637 50.9137 16.2737 51.1137 17.3937C51.6837 20.4837 52.7437 24.1037 54.1137 27.8637C52.6337 28.8437 51.1737 29.8537 49.7537 30.9137C46.6937 28.3437 43.6537 26.1137 40.9437 24.5137C39.9637 23.9337 38.7437 24.0337 37.8737 24.7637L37.5037 25.0737C36.6337 25.8037 36.3237 26.9937 36.7237 28.0537C37.8237 31.0037 39.5037 34.3837 41.5037 37.8537C40.2137 39.0737 38.9637 40.3237 37.7437 41.6137C34.2737 39.6137 30.8937 37.9337 27.9437 36.8337C26.8837 36.4337 25.6937 36.7437 24.9637 37.6137L24.6537 37.9837C23.9237 38.8537 23.8237 40.0737 24.4037 41.0537C26.0037 43.7637 28.2337 46.8037 30.8037 49.8637C29.7437 51.2837 28.7337 52.7337 27.7537 54.2137C23.9937 52.8437 20.3738 51.7837 17.2838 51.2137C16.1738 51.0037 15.0537 51.5137 14.4837 52.5037L14.2437 52.9237C13.6737 53.9037 13.7938 55.1337 14.5338 55.9937C16.5738 58.3737 19.2937 60.9837 22.3537 63.5437C21.5537 65.1237 20.8037 66.7337 20.0938 68.3737C16.1637 67.6837 12.4237 67.2737 9.2937 67.2437C8.1637 67.2337 7.14373 67.9337 6.76373 68.9937L6.59375 69.4537C6.20375 70.5237 6.53375 71.7037 7.40375 72.4237C9.82375 74.4137 12.9437 76.5037 16.3937 78.4937C15.8837 80.1937 15.4237 81.9137 15.0037 83.6537C11.0237 83.6537 7.27372 83.9037 4.18372 84.4137C3.06372 84.6037 2.19371 85.4637 1.99371 86.5837L1.9137 87.0637C1.7137 88.1837 2.2437 89.2937 3.2337 89.8437C5.9637 91.3837 9.40374 92.9037 13.1437 94.2637C12.9437 96.0237 12.7837 97.7937 12.6837 99.5737C8.75372 100.264 5.10374 101.154 2.14374 102.204C1.07374 102.584 0.363708 103.584 0.363708 104.714V105.204C0.363708 106.334 1.07374 107.344 2.14374 107.714C5.09374 108.754 8.75371 109.654 12.6737 110.344C12.7737 112.134 12.9337 113.904 13.1337 115.654C9.38373 117.014 5.94375 118.534 3.21375 120.074C2.22375 120.634 1.69374 121.744 1.89374 122.854L1.97369 123.334C2.17369 124.454 3.0437 125.314 4.1637 125.504C7.2537 126.014 11.0037 126.264 14.9837 126.264C15.3937 128.004 15.8637 129.724 16.3637 131.424C12.9137 133.414 9.78371 135.504 7.36371 137.494C6.48371 138.214 6.1637 139.404 6.5437 140.464L6.71375 140.924C7.10375 141.994 8.11371 142.684 9.24371 142.674C12.3737 142.644 16.1137 142.234 20.0437 141.544C20.7537 143.174 21.5037 144.784 22.3037 146.374C19.2437 148.944 16.5237 151.544 14.4837 153.924C13.7437 154.784 13.6337 156.014 14.1937 156.994L14.4337 157.414C15.0037 158.394 16.1137 158.904 17.2337 158.704C20.3237 158.134 23.9437 157.074 27.7037 155.704C28.6837 157.184 29.6937 158.644 30.7537 160.064C28.1837 163.124 25.9437 166.164 24.3537 168.874C23.7737 169.854 23.8737 171.074 24.6037 171.944L24.9137 172.314C25.6437 173.184 26.8337 173.494 27.8937 173.094C30.8437 171.994 34.2237 170.324 37.6937 168.314C38.9137 169.604 40.1637 170.854 41.4437 172.074C39.4437 175.544 37.7637 178.924 36.6637 181.874C36.2637 182.934 36.5737 184.124 37.4437 184.854L37.8137 185.164C38.6837 185.894 39.9037 185.994 40.8837 185.414C43.5937 183.814 46.6337 181.584 49.6937 179.014C51.1137 180.074 52.5637 181.094 54.0437 182.064C52.6737 185.824 51.6137 189.444 51.0437 192.534C50.8337 193.644 51.3437 194.764 52.3237 195.334L52.7437 195.574C53.7237 196.144 54.9537 196.024 55.8137 195.294C58.1937 193.254 60.8037 190.534 63.3737 187.484C64.9537 188.284 66.5637 189.034 68.2037 189.744C67.5137 193.674 67.0937 197.414 67.0637 200.544C67.0537 201.674 67.7537 202.694 68.8137 203.074L69.2737 203.244C70.3437 203.634 71.5237 203.304 72.2437 202.434C74.2337 200.014 76.3237 196.894 78.3237 193.444C80.0237 193.954 81.7437 194.414 83.4837 194.834C83.4837 198.814 83.7237 202.564 84.2437 205.654C84.4337 206.774 85.2937 207.644 86.4037 207.844L86.8837 207.924C88.0037 208.124 89.1137 207.594 89.6637 206.604C91.2037 203.874 92.7237 200.434 94.0837 196.694C95.8437 196.894 97.6137 197.054 99.3937 197.154C100.084 201.084 100.974 204.734 102.024 207.694C102.404 208.764 103.404 209.474 104.534 209.474H105.024C106.154 209.474 107.164 208.764 107.534 207.694C108.574 204.734 109.474 201.084 110.174 197.164C111.964 197.064 113.734 196.904 115.494 196.704C116.854 200.454 118.374 203.894 119.904 206.624C120.464 207.614 121.574 208.144 122.684 207.944L123.164 207.864C124.284 207.664 125.144 206.794 125.334 205.674C125.854 202.584 126.094 198.834 126.104 194.854C127.844 194.444 129.564 193.984 131.264 193.474C133.254 196.924 135.344 200.054 137.334 202.474C138.054 203.354 139.234 203.674 140.304 203.294L140.764 203.124C141.834 202.734 142.524 201.724 142.514 200.594C142.484 197.464 142.074 193.724 141.384 189.794C143.014 189.084 144.624 188.334 146.214 187.534C148.774 190.594 151.384 193.314 153.764 195.354C154.624 196.094 155.844 196.204 156.834 195.644L157.254 195.404C158.234 194.834 158.744 193.724 158.544 192.604C157.974 189.514 156.914 185.894 155.554 182.134C157.034 181.154 158.494 180.144 159.914 179.084C162.974 181.654 166.014 183.894 168.724 185.494C169.704 186.074 170.924 185.974 171.794 185.244L172.164 184.934C173.034 184.204 173.344 183.014 172.944 181.954C171.844 179.004 170.174 175.624 168.174 172.154C169.464 170.934 170.714 169.684 171.934 168.404C175.404 170.404 178.784 172.084 181.734 173.184C182.794 173.584 183.984 173.274 184.714 172.404L185.024 172.034C185.754 171.164 185.854 169.944 185.274 168.964C183.684 166.254 181.444 163.214 178.884 160.144C179.944 158.724 180.964 157.274 181.934 155.794C185.694 157.164 189.314 158.224 192.404 158.804C193.514 159.014 194.634 158.504 195.204 157.524L195.444 157.104C196.014 156.124 195.894 154.894 195.164 154.034C193.124 151.654 190.404 149.044 187.354 146.474C188.154 144.894 188.904 143.284 189.614 141.644C193.544 142.334 197.284 142.754 200.414 142.784C201.544 142.794 202.564 142.094 202.954 141.034L203.124 140.574C203.514 139.514 203.184 138.324 202.314 137.604C199.894 135.614 196.774 133.524 193.324 131.524C193.834 129.824 194.294 128.104 194.714 126.364C198.694 126.364 202.444 126.124 205.534 125.614C206.654 125.424 207.524 124.564 207.724 123.454L207.804 122.974C208.004 121.854 207.474 120.744 206.484 120.194C203.754 118.654 200.314 117.134 196.574 115.764C196.774 114.004 196.934 112.234 197.044 110.454C200.974 109.764 204.624 108.874 207.584 107.834C208.654 107.454 209.364 106.454 209.364 105.324V104.834C209.364 103.704 208.654 102.694 207.584 102.324V102.334ZM111.204 35.7137C111.204 32.1537 114.434 29.4837 117.944 30.0937C129.254 32.0537 139.704 36.5137 148.714 42.8737C151.614 44.9237 151.984 49.0937 149.464 51.6037L120.934 80.0337C117.334 83.6137 111.204 81.0737 111.204 75.9937V35.7137ZM61.1237 42.7937C70.1037 36.4737 80.5137 32.0537 91.7637 30.1037C95.2737 29.4937 98.5037 32.1637 98.5037 35.7237V75.9137C98.5037 80.9937 92.3537 83.5437 88.7637 79.9437L60.3537 51.5137C57.8437 49.0037 58.2137 44.8337 61.1237 42.7837V42.7937ZM29.9437 91.8937C31.9037 80.6337 36.3337 70.2337 42.6537 61.2537C44.7037 58.3437 48.8637 57.9737 51.3837 60.4837L79.7937 88.9137C83.3837 92.5037 80.8337 98.6537 75.7537 98.6537L35.5537 98.6337C31.9937 98.6337 29.3237 95.4037 29.9337 91.8937H29.9437ZM51.3337 149.484C48.8237 151.994 44.6537 151.614 42.6037 148.714C36.2837 139.734 31.8737 129.324 29.9237 118.064C29.3137 114.554 31.9837 111.324 35.5437 111.324L75.7337 111.344C80.8137 111.344 83.3537 117.494 79.7637 121.084L51.3237 149.484H51.3337ZM98.4337 174.304C98.4337 177.864 95.2037 180.534 91.6937 179.914C80.4437 177.954 70.0337 173.514 61.0637 167.184C58.1637 165.134 57.7837 160.964 60.3037 158.454L88.7437 130.054C92.3437 126.464 98.4837 129.014 98.4737 134.094L98.4337 174.294V174.304ZM104.854 116.914C98.2737 116.914 92.9537 111.584 92.9537 105.014C92.9537 98.4437 98.2837 93.1137 104.854 93.1137C111.424 93.1137 116.754 98.4437 116.754 105.014C116.754 111.584 111.424 116.914 104.854 116.914ZM148.514 167.284C139.534 173.594 129.114 178.004 117.854 179.944C114.344 180.554 111.114 177.884 111.124 174.314L111.164 134.124C111.164 129.044 117.314 126.504 120.904 130.104L149.294 158.564C151.804 161.084 151.424 165.244 148.514 167.284ZM179.754 118.214C177.784 129.464 173.344 139.864 167.014 148.834C164.964 151.734 160.794 152.104 158.284 149.594L129.904 121.134C126.314 117.534 128.864 111.394 133.954 111.404L174.154 111.464C177.714 111.464 180.374 114.704 179.764 118.214H179.754ZM174.164 98.7737L133.974 98.7137C128.894 98.7137 126.354 92.5537 129.954 88.9737L158.424 60.6037C160.944 58.0937 165.104 58.4737 167.144 61.3837C173.454 70.3737 177.854 80.7837 179.794 92.0437C180.394 95.5537 177.724 98.7837 174.164 98.7737Z" fill="#C3AE93"/>
</svg>
