<svg width="134" height="136" viewBox="0 0 134 136" fill="none" xmlns="http://www.w3.org/2000/svg">
<path d="M130.884 76.3437L120.564 71.8537C120.654 70.5837 120.714 69.3037 120.714 68.0137C120.714 66.8237 120.664 65.6537 120.584 64.4837L130.924 60.0637C132.664 59.3237 133.624 57.4337 133.214 55.5937L132.154 50.8937C131.734 49.0437 130.064 47.7537 128.174 47.8337L116.944 48.2637C116.034 45.9637 114.964 43.7337 113.764 41.6037L121.164 33.1337C122.414 31.7037 122.464 29.5937 121.284 28.1137L118.294 24.3337C117.114 22.8537 115.054 22.4137 113.374 23.3037L103.434 28.5637C101.624 26.8937 99.7037 25.3537 97.6837 23.9437L100.674 13.1037C101.174 11.2737 100.304 9.35373 98.6037 8.52373L94.2738 6.41373C92.5738 5.58373 90.5138 6.09372 89.3938 7.61372L82.7337 16.6537C80.3337 15.9237 77.8637 15.3437 75.3237 14.9537L73.2838 3.90372C72.9438 2.04372 71.3137 0.693726 69.4237 0.693726H64.6037C62.7137 0.693726 61.0837 2.04372 60.7437 3.90372L58.7038 14.9537C56.2438 15.3337 53.8337 15.8937 51.5037 16.5937L44.8737 7.52373C43.7537 5.99373 41.7037 5.48373 40.0037 6.30373L35.6637 8.39372C33.9537 9.21372 33.0837 11.1337 33.5737 12.9637L36.5238 23.8137C34.4938 25.2137 32.5637 26.7537 30.7537 28.4137L20.8438 23.1137C19.1738 22.2237 17.1037 22.6437 15.9237 24.1237L12.9137 27.8837C11.7337 29.3637 11.7737 31.4737 13.0137 32.9037L20.3737 41.4037C19.1537 43.5337 18.0837 45.7537 17.1637 48.0537L5.93373 47.5737C4.04373 47.4937 2.36373 48.7737 1.93373 50.6237L0.853714 55.3237C0.433714 57.1737 1.38373 59.0537 3.12373 59.8037L13.4538 64.2737C13.3738 65.5137 13.3137 66.7537 13.3137 68.0137C13.3137 69.2737 13.3738 70.4437 13.4538 71.6537L3.11372 76.0937C1.37372 76.8437 0.413755 78.7237 0.833755 80.5737L1.90376 85.2737C2.32376 87.1237 4.00375 88.4037 5.89375 88.3337L17.1237 87.8837C18.0437 90.1837 19.1137 92.4037 20.3237 94.5337L12.9437 103.014C11.7037 104.444 11.6538 106.554 12.8338 108.034L15.8338 111.804C17.0138 113.284 19.0837 113.714 20.7537 112.824L30.6837 107.544C32.4937 109.204 34.4237 110.744 36.4437 112.154L33.4737 122.994C32.9737 124.824 33.8437 126.744 35.5537 127.574L39.8938 129.674C41.6038 130.494 43.6538 129.994 44.7738 128.464L51.4237 119.414C53.7637 120.124 56.1637 120.684 58.6237 121.064L60.6438 132.114C60.9838 133.974 62.6037 135.334 64.5037 135.334H69.3237C71.2137 135.344 72.8437 133.994 73.1937 132.134L75.2537 121.094C77.7137 120.714 80.1238 120.164 82.4638 119.464L89.0737 128.544C90.1937 130.074 92.2337 130.594 93.9437 129.774L98.2937 127.694C100.004 126.874 100.884 124.954 100.394 123.124L97.4638 112.274C99.4938 110.874 101.434 109.344 103.244 107.684L113.144 113.004C114.814 113.904 116.884 113.474 118.064 112.004L121.074 108.244C122.254 106.764 122.224 104.654 120.984 103.224L113.634 94.7137C114.854 92.5837 115.934 90.3737 116.864 88.0737L128.094 88.5737C129.984 88.6537 131.664 87.3837 132.094 85.5337L133.184 80.8437C133.614 78.9937 132.664 77.1137 130.924 76.3537L130.884 76.3437ZM108.274 69.2837C108.374 92.7537 89.9938 111.854 67.2038 111.954C44.4237 112.054 25.8637 93.1137 25.7637 69.6437C25.6637 46.1737 44.0438 27.0737 66.8338 26.9737C89.6138 26.8737 108.174 45.8137 108.274 69.2837Z" fill="#BB6618"/>
</svg>
