<svg width="86" height="84" viewBox="0 0 86 84" fill="none" xmlns="http://www.w3.org/2000/svg">
<path d="M85.6338 38.4437C85.5438 37.4137 84.6638 36.6838 83.6338 36.6738C80.2738 36.6738 77.1538 34.5237 76.0438 31.1637C74.9438 27.7937 76.1938 24.2238 78.9038 22.2238C79.7338 21.6138 80.0037 20.4938 79.4637 19.6138C78.2537 17.6438 76.8838 15.7738 75.3738 14.0338C74.7038 13.2538 73.5538 13.1738 72.7238 13.7738C70.0038 15.7438 66.2238 15.8438 63.3438 13.7738C60.4738 11.6938 59.3838 8.06376 60.4038 4.86376C60.7138 3.88376 60.2837 2.81376 59.3237 2.42376C57.2437 1.56376 55.0838 0.863756 52.8538 0.333756C51.8538 0.0937562 50.8738 0.703755 50.5538 1.68375C49.5038 4.87375 46.4937 7.18375 42.9537 7.18375C39.4137 7.18375 36.4038 4.88375 35.3538 1.68375C35.0338 0.703755 34.0538 0.103756 33.0538 0.333756C30.7838 0.873756 28.5837 1.58375 26.4637 2.46375C25.5137 2.86375 25.0738 3.92376 25.3938 4.90376C26.4238 8.10376 25.3438 11.7438 22.4838 13.8238C19.6138 15.9038 15.8338 15.8138 13.1038 13.8538C12.2638 13.2538 11.1237 13.3438 10.4537 14.1238C8.95374 15.8738 7.58379 17.7438 6.38379 19.7138C5.84379 20.5938 6.12374 21.7138 6.95374 22.3238C9.66374 24.3138 10.9338 27.8738 9.84375 31.2538C8.75375 34.6238 5.6338 36.7738 2.2738 36.7938C1.2438 36.7938 0.373813 37.5438 0.283813 38.5638C0.193813 39.6938 0.133789 40.8438 0.133789 41.9938C0.133789 43.1438 0.183813 44.3438 0.283813 45.4938C0.373813 46.5238 1.2438 47.2538 2.2738 47.2638C5.6338 47.2738 8.75376 49.4238 9.85376 52.7838C10.9538 56.1538 9.69376 59.7238 6.98376 61.7138C6.15376 62.3238 5.88383 63.4438 6.42383 64.3238C7.63383 66.2938 9.00378 68.1637 10.5038 69.9137C11.1738 70.6937 12.3238 70.7738 13.1538 70.1738C15.8738 68.2138 19.6638 68.1138 22.5338 70.1838C25.4038 72.2638 26.4837 75.8938 25.4637 79.1038C25.1537 80.0838 25.5838 81.1538 26.5338 81.5438C28.6538 82.4238 30.8538 83.1337 33.1238 83.6637C34.1238 83.9037 35.1038 83.2938 35.4238 82.3138C36.4738 79.1238 39.4738 76.8137 43.0138 76.8037C46.5638 76.8037 49.5638 79.0938 50.6238 82.2938C50.9438 83.2738 51.9238 83.8738 52.9338 83.6338C55.2038 83.0938 57.4038 82.3738 59.5138 81.4938C60.4638 81.0938 60.8937 80.0238 60.5837 79.0438C59.5537 75.8438 60.6138 72.2038 63.4838 70.1138C66.3438 68.0238 70.1338 68.1138 72.8638 70.0738C73.7038 70.6738 74.8438 70.5837 75.5138 69.8037C77.0138 68.0537 78.3737 66.1838 79.5837 64.2038C80.1237 63.3238 79.8438 62.2038 79.0138 61.5938C76.2938 59.6138 75.0238 56.0438 76.1138 52.6738C77.2038 49.3038 80.3138 47.1538 83.6738 47.1238C84.7038 47.1238 85.5738 46.3738 85.6638 45.3538C85.7538 44.2438 85.8038 43.1138 85.8038 41.9838C85.8038 40.7838 85.7538 39.5938 85.6438 38.4238L85.6338 38.4437ZM42.9637 63.7438C30.9637 63.7438 21.2338 54.0138 21.2338 42.0138C21.2338 30.0138 30.9637 20.2838 42.9637 20.2838C54.9637 20.2838 64.6937 30.0138 64.6937 42.0138C64.6937 54.0138 54.9637 63.7438 42.9637 63.7438Z" fill="#F1680C"/>
</svg>
