<?xml version="1.0" encoding="UTF-8" standalone="no"?>
<!-- Created with Inkscape (http://www.inkscape.org/) -->

<svg
   xmlns:dc="http://purl.org/dc/elements/1.1/"
   xmlns:cc="http://creativecommons.org/ns#"
   xmlns:rdf="http://www.w3.org/1999/02/22-rdf-syntax-ns#"
   xmlns:svg="http://www.w3.org/2000/svg"
   xmlns="http://www.w3.org/2000/svg"
   xmlns:sodipodi="http://sodipodi.sourceforge.net/DTD/sodipodi-0.dtd"
   xmlns:inkscape="http://www.inkscape.org/namespaces/inkscape"
   width="114.38423"
   height="40.744678"
   viewBox="0 0 30.264164 10.780362"
   version="1.1"
   id="svg20319"
   inkscape:version="0.92.0 r15299"
   sodipodi:docname="star miironics.svg">
  <defs
     id="defs20313" />
  <sodipodi:namedview
     id="base"
     pagecolor="#ffffff"
     bordercolor="#666666"
     borderopacity="1.0"
     inkscape:pageopacity="0.0"
     inkscape:pageshadow="2"
     inkscape:zoom="7.9111484"
     inkscape:cx="56.692149"
     inkscape:cy="19.872333"
     inkscape:document-units="mm"
     inkscape:current-layer="layer1"
     showgrid="false"
     fit-margin-top="0"
     fit-margin-left="0"
     fit-margin-right="0"
     fit-margin-bottom="0"
     units="px"
     inkscape:window-width="1280"
     inkscape:window-height="744"
     inkscape:window-x="-4"
     inkscape:window-y="-4"
     inkscape:window-maximized="1" />
  <metadata
     id="metadata20316">
    <rdf:RDF>
      <cc:Work
         rdf:about="">
        <dc:format>image/svg+xml</dc:format>
        <dc:type
           rdf:resource="http://purl.org/dc/dcmitype/StillImage" />
        <dc:title></dc:title>
      </cc:Work>
    </rdf:RDF>
  </metadata>
  <g
     inkscape:label="Layer 1"
     inkscape:groupmode="layer"
     id="layer1"
     transform="translate(-67.399012,-187.1561)">
    <g
       id="g20401"
       transform="translate(0.13229263,-0.13228937)">
      <path
         d="M 84.896516,197.80135 H 83.72988 v -4.03225 c 0,-0.39335 -0.371475,-1.18357 -1.254831,-1.18357 -0.663927,0 -1.175102,0.6089 -1.175102,1.23896 0,0.55739 0.506941,1.25024 1.411816,1.25024 0.312209,0 0.540809,-0.13476 0.540809,-0.13476 v 1.12854 c 0,0 -0.279048,0.12664 -0.688975,0.12664 -0.841023,0 -1.267531,-0.25329 -1.775531,-0.71861 -0.423333,-0.3877 -0.676275,-1.20861 -0.676275,-1.66546 0,-0.45614 0.237067,-1.24213 0.625828,-1.62242 0.388761,-0.3803 0.930275,-0.78635 1.792111,-0.78635 0.862189,0 1.41993,0.49001 1.783997,0.85373 0.574675,0.57467 0.582789,1.81786 0.582789,1.81786 z"
         style="fill:#003f98;fill-opacity:1;fill-rule:nonzero;stroke:none;stroke-width:0.35277778"
         id="path18156"
         inkscape:connector-curvature="0" />
      <path
         d="m 88.776366,192.83903 v -2.91606 h 1.166989 v 0.49001 c 0,0 0.447675,-0.34643 1.073503,-0.55739 0.625122,-0.21167 1.41993,-0.29633 1.41993,-0.29633 v 0.64276 c 0,0 0.329847,-0.0593 0.642408,-0.0847 0.312914,-0.0254 0.709789,-0.0173 0.709789,-0.0173 v 0.82903 c 0,0 -0.202494,0 -0.414161,0.008 -0.210961,0.008 -0.523875,0.0593 -0.523875,0.0593 l 0.946503,0.27023 0.0088,0.89641 0.557742,-0.72708 0.90417,0.3048 -0.531989,-0.76976 2.662413,-3.27131 v 1.27671 l -1.648177,2.05387 1.462264,2.13042 -2.56152,-0.77787 -1.681691,2.07116 -0.0088,-2.59539 -0.523875,-0.16898 v 0.49001 c 0,0 -1.0414,0.0586 -1.707797,0.77787 -0.844903,0.91299 -0.777522,1.88525 -0.777522,1.88525 v 2.9598 h -1.175103 v -2.94322 c 0,-0.46461 0.05433,-1.44498 1.014589,-2.48462 0.74295,-0.80574 1.868311,-1.14194 1.868311,-1.14194 l 1.521178,0.47343 -0.0085,2.18158 1.411817,-1.7586 2.164291,0.70168 -1.242836,-1.81787 1.699331,-2.09585 v -0.65123 l -2.206272,2.72239 0.726722,1.08161 -1.284817,-0.3884 -0.870655,1.06433 -0.0085,-1.34338 c 0,0 -1.073503,-0.3549 -1.538464,-0.44803 -0.01199,-0.003 0.532342,-0.15205 0.896056,-0.18591 0.363008,-0.0339 0.642408,-0.0339 0.642408,-0.0339 V 190.295 c 0,0 -0.972608,-0.006 -2.020358,0.35489 -1.15817,0.399 -1.9685,1.13207 -2.273653,1.44569 -0.329847,0.33761 -0.490714,0.7433 -0.490714,0.7433"
         style="fill:#003f98;fill-opacity:1;fill-rule:nonzero;stroke:none;stroke-width:0.35277778"
         id="path18160"
         inkscape:connector-curvature="0" />
      <path
         inkscape:connector-curvature="0"
         id="path18162"
         style="fill:#003f98;fill-opacity:1;fill-rule:nonzero;stroke:none;stroke-width:0.35277778"
         d="m 87.052102,189.92293 h 1.1497 v 7.87965 h -1.1497 z" />
      <path
         d="m 85.471509,197.80135 h 1.157817 v -4.15078 c 0,-0.97191 -0.397228,-1.94416 -1.318331,-2.86562 -0.921455,-0.9211 -2.214739,-1.12359 -2.84868,-1.12359 -0.634295,0 -1.707798,0.25364 -2.333273,0.7433 -0.625475,0.49071 -1.775177,1.43722 -1.775177,3.47415 0,1.71627 1.15323,2.98838 2.053872,3.50838 0.708025,0.40852 1.35255,0.54927 2.172758,0.54927 0.575028,0 0.667808,-0.0847 0.667808,-0.0847 v -1.18322 c 0,0 -0.24518,0.0931 -0.676274,0.0931 -0.430742,0 -1.022703,-0.0339 -1.690864,-0.47342 -0.667456,-0.43956 -1.318331,-1.28517 -1.318331,-2.49344 0,-1.20932 0.676275,-2.02917 1.318331,-2.46874 0.642761,-0.43991 1.335616,-0.49 1.656997,-0.49 0.32138,0 1.259416,0.10936 1.994958,0.84525 0.735542,0.73519 0.938389,1.52153 0.938389,2.73897 z"
         style="fill:#003f98;fill-opacity:1;fill-rule:nonzero;stroke:none;stroke-width:0.35277778"
         id="path18166"
         inkscape:connector-curvature="0" />
      <path
         d="m 75.452135,194.42032 c 0,0.86184 0.05398,1.13347 0.272697,1.35184 0.246239,0.24589 0.380647,0.38947 1.242836,0.38947 h 1.386417 v -1.09925 c 0,0 -0.549628,-0.008 -1.132769,-0.008 -0.566209,0 -0.583495,-0.16122 -0.583495,-0.56656 v -1.85949 h 1.716264 v -1.0735 h -2.90195 z"
         style="fill:#003f98;fill-opacity:1;fill-rule:nonzero;stroke:none;stroke-width:0.35277778"
         id="path18170"
         inkscape:connector-curvature="0" />
      <path
         d="m 73.704773,191.55472 h 1.17475 v 3.19511 c 0,0.84525 0.237067,1.19203 0.448381,1.41993 0.210961,0.22825 0.591255,0.55809 1.563511,0.55809 h 1.462616 v 1.09009 c 0,0 -1.22555,-0.0166 -2.011539,-0.0166 -0.507647,0 -1.395236,-0.29634 -1.978377,-0.98955 -0.518584,-0.61595 -0.659342,-1.36913 -0.659342,-1.80022 z"
         style="fill:#003f98;fill-opacity:1;fill-rule:nonzero;stroke:none;stroke-width:0.35277778"
         id="path18174"
         inkscape:connector-curvature="0" />
      <path
         d="m 75.455574,187.42127 h 1.182511 v 2.51001 h 1.724378 v 1.05693 h -2.906889 z"
         style="fill:#003f98;fill-opacity:1;fill-rule:nonzero;stroke:none;stroke-width:0.35277778"
         id="path18178"
         inkscape:connector-curvature="0" />
      <path
         inkscape:connector-curvature="0"
         id="path18180"
         style="fill:#003f98;fill-opacity:1;fill-rule:nonzero;stroke:none;stroke-width:0.35277778"
         d="m 73.704752,187.42068 h 1.19204 v 3.57611 h -1.19204 z" />
      <path
         d="m 73.138406,192.62819 v -1.08232 h -3.432175 c -0.523875,0 -0.638175,0.23812 -0.676275,0.36371 -0.134761,0.44768 0.625828,0.95497 1.242836,1.41993 0.617361,0.46532 1.23825,0.9338 1.521531,1.21744 0.304447,0.30409 0.718961,0.82338 0.473427,1.43686 -0.270227,0.67663 -0.921455,0.71861 -1.45415,0.71861 h -3.269897 v 1.0989 h 3.19405 c 1.115484,0 1.808692,-0.2286 2.358672,-1.08232 0.487187,-0.75671 0.313973,-1.6697 0.06738,-2.0962 -0.346428,-0.60008 -0.862189,-1.05693 -1.445331,-1.44534 -0.456494,-0.3048 -0.569383,-0.33901 -0.532694,-0.47342 0.0254,-0.0931 0.362303,-0.0773 0.362303,-0.0773 z"
         style="fill:#003f98;fill-opacity:1;fill-rule:nonzero;stroke:none;stroke-width:0.35277778"
         id="path18184"
         inkscape:connector-curvature="0" />
      <path
         d="m 73.155287,190.98348 v -1.07632 c 0,0 -3.224742,-0.001 -3.499555,-0.001 -0.989189,0 -2.25672,0.69321 -2.25672,2.1897 0,1.49613 1.479903,2.18722 2.130072,2.7051 0.09384,0.0744 0.160514,0.26211 -0.11818,0.26211 h -1.870781 v 1.08162 h 2.808817 c 1.048455,0 1.208969,-0.0593 1.360664,-0.3803 0.105833,-0.2226 0.0762,-0.45614 -0.456495,-0.93839 -0.532341,-0.48189 -1.647825,-1.30175 -1.960739,-1.52964 -0.312913,-0.22825 -0.929922,-0.78634 -0.828322,-1.36984 0.101247,-0.58279 0.455789,-0.93768 1.22555,-0.93768 0.797631,0 3.465689,-0.005 3.465689,-0.005"
         style="fill:#003f98;fill-opacity:1;fill-rule:nonzero;stroke:none;stroke-width:0.35277778"
         id="path18188"
         inkscape:connector-curvature="0" />
    </g>
  </g>
</svg>
