<?xml version="1.0" encoding="UTF-8"?>
<svg id="Layer_2" xmlns="http://www.w3.org/2000/svg" viewBox="0 0 354.25 268.57">
  <defs>
    <style>
      .cls-1 {
        stroke: #fff;
        stroke-linecap: round;
        stroke-linejoin: round;
        stroke-width: 7px;
      }

      .cls-1, .cls-2 {
        fill: #fffefc;
      }

      .cls-3 {
        fill: #fff;
      }

      .cls-4, .cls-5 {
        fill: #aa2500;
      }

      .cls-6, .cls-7 {
        fill: #edaa00;
      }

      .cls-8 {
        fill: #ee3024;
      }

      .cls-5, .cls-7 {
        fill-rule: evenodd;
      }
    </style>
  </defs>
  <g id="Layer_5">
    <g>
      <path class="cls-1" d="M207.02,102.26s-.04.07-.07.1c.03-.03.06-.06.08-.09,0,0,0-.01-.01-.01Z"/>
      <path class="cls-1" d="M343.12,88.95l-4.58,10.69.17,6.19c-.08,0-.15-.02-.23-.03-11.52-32.5-48.2-101.02-149.44-83,0,0-142.93,28.98-185.54-19.3,1.21,1.64,40.53,54.19,128.51,72.22.6-.2,1.2-.4,1.81-.59-6.49,6.37-12.18,13.37-16.96,20.83-.22-.24-.44-.48-.66-.7-.68-.69-1.72-.88-2.6-.47l-.37.17c-.88.41-1.4,1.33-1.31,2.29.16,1.67.47,3.53.89,5.49.26,1.18.55,2.4.88,3.63-1.32.71-2.62,1.46-3.9,2.24-.02.02-.04.03-.06.04-2.41-2.41-4.83-4.53-7.01-6.09-.79-.56-1.84-.57-2.64-.01l-.34.24c-.79.55-1.14,1.54-.88,2.48.71,2.58,1.88,5.58,3.32,8.67-1.19.94-2.35,1.92-3.5,2.94-2.79-1.96-5.54-3.63-7.96-4.79-.88-.41-1.92-.24-2.6.45l-.3.29c-.68.69-.86,1.72-.44,2.6,1.16,2.42,2.83,5.17,4.78,7.97-1.02,1.14-1.99,2.31-2.93,3.49-3.1-1.44-6.1-2.61-8.68-3.33-.93-.25-1.92.1-2.48.89l-.24.34c-.56.8-.55,1.85.01,2.64,1.56,2.18,3.68,4.6,6.09,7.01-.8,1.3-1.56,2.62-2.28,3.96-3.3-.88-6.45-1.51-9.12-1.77-.97-.1-1.88.42-2.29,1.3l-.18.38c-.41.88-.22,1.91.48,2.59,1.91,1.88,4.42,3.9,7.22,5.86-.57,1.41-1.08,2.84-1.56,4.28-3.4-.29-6.62-.37-9.3-.16-.97.08-1.78.75-2.03,1.68l-.11.41c-.25.93.12,1.92.92,2.47,2.21,1.52,5.04,3.07,8.15,4.52-.31,1.49-.58,2.98-.79,4.48-3.41.3-6.61.79-9.21,1.46-.94.24-1.62,1.04-1.71,2.01l-.03.41c-.09.97.44,1.88,1.33,2.28,2.45,1.11,5.51,2.15,8.82,3.04-.05,1.51-.05,3.03,0,4.55-3.32.88-6.38,1.92-8.83,3.03-.88.4-1.41,1.31-1.33,2.28l.04.41c.08.97.76,1.77,1.7,2.01,2.61.67,5.8,1.16,9.21,1.46.21,1.5.48,3,.78,4.49-3.1,1.44-5.93,2.99-8.15,4.51-.8.55-1.17,1.54-.91,2.47l.1.41c.25.93,1.06,1.6,2.03,1.68,2.68.21,5.9.14,9.3-.16.48,1.45,1,2.88,1.56,4.29-2.8,1.96-5.31,3.97-7.23,5.85-.69.68-.88,1.72-.47,2.6l.17.37c.41.88,1.33,1.4,2.29,1.31,2.67-.26,5.83-.89,9.12-1.77.72,1.34,1.48,2.66,2.28,3.96-2.41,2.41-4.53,4.83-6.09,7.01-.57.79-.57,1.84-.02,2.64l.24.34c.56.79,1.55,1.15,2.48.89,2.59-.72,5.59-1.89,8.68-3.33.94,1.19,1.92,2.36,2.93,3.5-1.95,2.8-3.62,5.55-4.78,7.97-.42.87-.25,1.91.44,2.59l.29.3c.69.69,1.73.86,2.6.44,2.42-1.15,5.17-2.82,7.97-4.78,1.14,1.02,2.31,2,3.5,2.94-1.45,3.09-2.61,6.09-3.33,8.67-.26.94.09,1.93.88,2.49l.34.24c.8.55,1.85.55,2.64-.02,2.18-1.55,4.6-3.67,7.01-6.08,1.3.8,2.62,1.56,3.96,2.28-.88,3.3-1.51,6.45-1.77,9.12-.1.96.42,1.88,1.3,2.29l.38.18c.88.41,1.91.22,2.59-.48,1.88-1.91,3.9-4.42,5.86-7.21,1.41.56,2.84,1.08,4.28,1.55-.29,3.41-.37,6.63-.16,9.3.07.97.74,1.78,1.68,2.03l.4.11c.94.25,1.93-.11,2.48-.91,1.52-2.22,3.07-5.05,4.52-8.15,1.49.31,2.98.57,4.48.79.3,3.41.79,6.6,1.46,9.21.24.94,1.04,1.62,2,1.7l.42.04c.97.09,1.87-.45,2.28-1.33,1.11-2.45,2.15-5.51,3.04-8.82,1.51.04,3.03.05,4.54,0,.89,3.31,1.92,6.38,3.04,8.83.4.88,1.3,1.41,2.27,1.33l.42-.04c.96-.08,1.76-.76,2.01-1.7.67-2.6,1.16-5.8,1.46-9.21,1.5-.21,3-.48,4.48-.78,1.45,3.1,3,5.93,4.52,8.15.55.8,1.53,1.17,2.47.92l.4-.11c.94-.25,1.61-1.06,1.69-2.03.21-2.67.14-5.89-.16-9.3,1.44-.47,2.88-.99,4.29-1.55,1.96,2.8,3.97,5.31,5.85,7.23.68.69,1.71.88,2.59.47l.38-.17c.88-.41,1.4-1.33,1.31-2.29-.18-1.84-.54-3.92-1.03-6.11,16.3,3.09,32.69,4.08,47.13,3.85,10.72-.17,40.2-2.37,41.64-4.24-.06,0-.12,0-.18-.01.04-.05.05-.1.05-.15,0-11.87,13.95-49.2,13.95-49.2l19.38-1.22-7.75-40.96,9.47-14.19-1.92-17.15c17.85,2.91,28.12,2.61,28.12,2.61l11.45-8.4-7.63-30.53Z"/>
    </g>
    <g>
      <path class="cls-2" d="M182.11,187.79c10.83,17.26,32.65,60.41,71.47,60.57,15.46.06,24.49.96,24.49-.35,0-11.87,13.95-49.21,13.95-49.21l19.37-1.22-7.75-40.96,9.47-14.19-3.44-30.82-88.21-16.1c-7.86,9.1-15.72,18.2-23.58,27.31l-11.02,21.2c-1.58,14.59-3.17,29.17-4.75,43.76Z"/>
      <g>
        <path class="cls-6" d="M232.57,244.94c-33.65,0-113.17-7.16-124.77-73.48-3.75-21.47.31-44.48,11.44-64.8,11-20.1,28.55-36.81,49.54-47.23l53.12,3.67,14.24,13.01c-16.03,10.79-37.93,28.97-49.55,53.57-2.15,4.54-6.62,14-8.13,27.29-1.01,8.83-1.05,22.49,4.49,37.39,6.5,17.49,18.18,32.25,32.03,40.47,5.99,3.56,13.33,7.03,21.02,10.08-1.13.02-2.27.02-3.43.02Z"/>
        <path class="cls-4" d="M170.33,67.06l48.44,3.35,5.44,4.97c-15.57,11.59-33.87,28.81-44.41,51.11-2.32,4.91-7.15,15.13-8.8,29.64-1.1,9.65-1.14,24.57,4.91,40.85,7.19,19.35,18.13,31.41,26.98,38.54-16.82-2.24-32.12-6.41-44.64-12.25-11.61-5.42-21.06-12.33-28.08-20.52-7.74-9.03-12.78-19.99-14.98-32.58-3.46-19.8.31-41.07,10.63-59.91,9.96-18.19,25.67-33.41,44.51-43.2M167.3,51.81c-48.21,22.93-75.19,73.41-66.88,120.94,11.31,64.71,81.94,79.69,132.15,79.69,1.34,0,2.67-.01,3.98-.03,10.72-.17,40.2-2.37,41.64-4.24-13.65-.51-41.64-9.24-59.39-19.78-10.06-5.97-21.85-17.85-28.83-36.64-5.63-15.15-4.67-28.67-4.07-33.92,1.35-11.81,5.24-20.22,7.46-24.93,14.23-30.11,45.56-50,55.06-55.71l-23.39-21.38-57.73-3.99h0Z"/>
      </g>
      <path class="cls-4" d="M178.56,66.31c-9.38,1.15-29.26,5.08-45.3,21.07-19.84,19.78-21.65,45.9-22.84,63.02-.9,13,.59,22.44,1.47,22.47,1.77.05-3.66-37.44,17.3-62.42,10.34-12.33,25.03-19.13,25.87-19.51,7.52-3.4,14.3-4.93,19.14-5.67-4.25,2.28-42.52,23.59-47.38,64.87-5.51,46.78,35.47,88.84,73.84,93.89,9.53,1.25,17.74.07,23.52-1.28-3.48-.59-8.35-1.66-13.91-3.73-21.75-8.12-33.86-24.12-38.33-30.19-6.09-8.26-25.19-34.19-17.98-67.84,7.39-34.5,36.78-50.69,41.3-53.09,3.14-1.95,6.28-3.9,9.41-5.85l-26.11-15.72Z"/>
      <g>
        <g>
          <path class="cls-8" d="M333.34,114.04c-99.42-6.47-115.7-53.35-115.86-53.84l-1.7-5.27-5.54.07c-18.49.25-36.95,2.42-54.86,6.44-7.99,1.8-15.98,3.99-23.79,6.53-35.09-7.46-62.12-20.67-81.72-33.54,14.65,3,31.69,4.5,51.06,4.5,45.2,0,86.73-8.2,89.53-8.76,10.61-1.88,20.89-2.84,30.55-2.84,78.29,0,104.9,62.22,112.33,86.69Z"/>
          <path class="cls-4" d="M221.01,34.85c36.13,0,64.74,13.88,85.05,41.25,7.61,10.25,12.83,20.83,16.3,29.49-40.36-4.23-64.14-15.63-77.45-25.16-15.25-10.92-19.75-21.21-20.33-22.64l-2.89-10.42-11.56.15c-19.01.25-37.99,2.48-56.4,6.63-7.55,1.7-15.11,3.74-22.52,6.09-16.52-3.65-31.09-8.59-43.73-14.03,4.36.17,8.84.25,13.44.25,45.48,0,87.34-8.17,90.93-8.89,10.15-1.8,19.96-2.71,29.16-2.71M3.49,3.48s39.16,53.94,128.54,72.25c7.64-2.55,15.98-4.94,25-6.97,19.87-4.47,37.97-6.06,53.31-6.26,0,0,17.88,55.46,132.79,59.53,0,0-.05-.25-.15-.73-1.92-9.14-23.77-101.47-121.98-101.47-9.86,0-20.49.93-31.95,2.97,0,0-42.55,8.63-88.14,8.63C62.93,31.45,22.84,25.46,3.49,3.48h0Z"/>
        </g>
        <path class="cls-6" d="M324.31,109.32s-.04-.19-.12-.54c-1.73-7.51-23.15-90.24-125.68-73.56-19.15,3.6-41.94,6.46-67.64,6.93-31.37.58-58.77-2.55-80.9-6.61,5.59,3.11,11.4,6.16,17.43,9.13,29.73,14.62,58.48,24.01,84.55,30.07,0,0,35.45,3.04,63.94-9.88,0,0,14.6,41.42,108.42,44.46Z"/>
        <path class="cls-4" d="M324.56,106.27c-7.34-15.4-26.7-50.07-64.62-63.1-5.29-1.82-10.5-3.06-15.56-3.86-4.41-.61-10.91-1.27-18.79-1.23-5.67.03-10.73.43-23.92,2.04-11.55,1.41-18.59,2.44-23.15,3.05-25.08,3.37-43.09,3.22-43.08,3.65.02.56,31.31-.11,71.58,1.95,21.6,1.1,30.1,2.16,40.2,6.11,17.8,6.95,29.82,18.42,36.9,26.57-10.16-5.52-25.85-13.22-45.99-19.32-41.09-12.44-67.58-8.94-108.71-13.1-22.1-2.24-53.67-7.26-91.59-19.84,16,9.9,40.37,23.06,72,32.82,26.32,8.12,46.87,10.55,55.97,11.7,32.71,4.14,83.07,12.75,158.76,32.57Z"/>
      </g>
      <polyline class="cls-4" points="300.9 149.52 272.41 132.22 254.6 147.48 280.04 159.18 298.36 155.62 303.44 188.7 285.13 193.78 292.02 198.8 311.39 197.59 303.64 156.63 313.11 142.44"/>
      <path class="cls-6" d="M350.76,119.49l-11.45,8.4s-66.02,1.91-154.17-51.14l-20.4-25.77s87.77,45.98,173.98,54.86l-.17-6.19,4.58-10.69,7.63,30.53Z"/>
      <g>
        <g>
          <path class="cls-4" d="M158.55,266.59c-1.48,0-2.83-.87-3.44-2.22-.98-2.17-1.95-4.89-2.8-7.92-.35,0-.71,0-1.06,0-.4,0-.81,0-1.21,0-.86,3.03-1.82,5.74-2.81,7.92-.61,1.35-1.96,2.22-3.44,2.22-.11,0-.22,0-.33-.01l-.42-.04c-1.59-.14-2.93-1.28-3.33-2.83-.59-2.31-1.07-5.15-1.38-8.28-.74-.12-1.49-.25-2.25-.4-1.37,2.83-2.79,5.34-4.14,7.3-.71,1.03-1.87,1.64-3.12,1.64-.33,0-.66-.04-.98-.13l-.4-.11c-1.55-.42-2.67-1.77-2.79-3.36-.18-2.37-.16-5.24.07-8.37-.72-.25-1.44-.51-2.15-.78-1.84,2.54-3.67,4.76-5.33,6.45-.72.73-1.68,1.13-2.7,1.13-.56,0-1.09-.12-1.6-.36l-.38-.18c-1.45-.68-2.32-2.2-2.16-3.8.23-2.36.75-5.18,1.52-8.22-.67-.38-1.34-.76-1.99-1.15-2.25,2.18-4.43,4.04-6.36,5.42-.65.46-1.41.71-2.2.71s-1.53-.24-2.17-.68l-.34-.24c-1.31-.92-1.9-2.57-1.47-4.12.64-2.29,1.64-4.98,2.93-7.83-.59-.49-1.18-.98-1.76-1.48-2.59,1.76-5.07,3.21-7.21,4.24-.51.24-1.07.37-1.63.37-1.01,0-1.96-.39-2.67-1.11l-.29-.29c-1.13-1.13-1.43-2.87-.73-4.31,1.02-2.14,2.48-4.62,4.24-7.21-.5-.58-.99-1.16-1.48-1.76-2.86,1.28-5.55,2.28-7.84,2.92-.33.09-.67.14-1.02.14-1.23,0-2.39-.6-3.1-1.61l-.24-.34c-.92-1.31-.91-3.06.03-4.37,1.38-1.93,3.24-4.11,5.42-6.36-.39-.66-.77-1.32-1.15-1.99-3.04.76-5.86,1.28-8.22,1.51-.12.01-.25.02-.37.02-1.46,0-2.81-.86-3.43-2.18l-.18-.38c-.68-1.45-.36-3.18.79-4.3,1.7-1.66,3.91-3.49,6.45-5.32-.27-.71-.53-1.43-.78-2.16-1.73.13-3.38.19-4.91.19-1.24,0-2.4-.04-3.46-.12-1.6-.12-2.95-1.25-3.36-2.79l-.11-.4c-.41-1.54.2-3.19,1.52-4.1,1.96-1.35,4.47-2.76,7.3-4.13-.14-.76-.28-1.51-.39-2.25-3.13-.32-5.97-.8-8.27-1.39-1.55-.4-2.69-1.74-2.83-3.33l-.04-.42c-.14-1.59.75-3.11,2.21-3.77,2.17-.99,4.89-1.95,7.92-2.8-.01-.75,0-1.51,0-2.27-3.03-.86-5.75-1.82-7.92-2.81-1.46-.66-2.34-2.18-2.2-3.77l.04-.42c.14-1.59,1.28-2.93,2.83-3.33,2.3-.59,5.15-1.07,8.28-1.39.12-.74.25-1.49.4-2.24-2.83-1.37-5.34-2.79-7.3-4.14-1.32-.91-1.93-2.55-1.51-4.1l.11-.4c.42-1.55,1.77-2.67,3.36-2.79,1.05-.08,2.21-.12,3.43-.12,1.54,0,3.2.06,4.94.19.25-.72.51-1.44.78-2.15-2.54-1.84-4.76-3.67-6.45-5.33-1.14-1.12-1.46-2.85-.78-4.3l.18-.38c.62-1.32,1.96-2.18,3.42-2.18.12,0,.25,0,.37.02,2.36.23,5.18.75,8.22,1.52.38-.67.76-1.34,1.15-1.99-2.18-2.24-4.04-4.43-5.42-6.36-.93-1.3-.94-3.06-.02-4.37l.24-.34c.71-1.01,1.86-1.61,3.09-1.61.34,0,.69.05,1.02.14,2.29.64,4.98,1.64,7.83,2.92.49-.59.98-1.18,1.48-1.76-1.76-2.59-3.21-5.07-4.24-7.21-.69-1.44-.4-3.17.74-4.31l.29-.29c.71-.71,1.66-1.11,2.67-1.11.56,0,1.13.13,1.64.37,2.14,1.02,4.62,2.48,7.21,4.24.58-.5,1.17-.99,1.76-1.48-1.28-2.86-2.28-5.55-2.92-7.83-.43-1.54.16-3.2,1.47-4.11l.34-.24c.64-.45,1.39-.68,2.17-.68s1.56.25,2.2.71c1.93,1.38,4.12,3.25,6.36,5.42.65-.39,1.32-.77,1.99-1.15-.77-3.04-1.29-5.86-1.52-8.22-.15-1.59.71-3.12,2.17-3.79l.38-.18c.51-.24,1.04-.36,1.6-.36,1.01,0,1.99.41,2.7,1.14,1.67,1.7,3.49,3.92,5.33,6.46.71-.27,1.43-.53,2.15-.78-.23-3.12-.25-6-.07-8.37.12-1.6,1.25-2.95,2.79-3.36l.4-.11c.32-.09.65-.13.98-.13,1.24,0,2.41.61,3.12,1.64,1.35,1.97,2.77,4.47,4.13,7.3.76-.14,1.51-.28,2.25-.4.32-3.13.8-5.97,1.39-8.27.4-1.55,1.74-2.69,3.33-2.83l.42-.04c.11,0,.22-.01.33-.01,1.48,0,2.83.87,3.44,2.22.99,2.17,1.95,4.89,2.81,7.92.38,0,.75,0,1.12,0s.77,0,1.15,0c.86-3.03,1.82-5.75,2.81-7.92.61-1.35,1.96-2.22,3.44-2.22.11,0,.22,0,.33.01l.41.04c1.59.14,2.93,1.28,3.33,2.83.59,2.3,1.07,5.14,1.39,8.27.74.12,1.49.25,2.25.4,1.37-2.83,2.79-5.34,4.14-7.3.71-1.03,1.87-1.65,3.12-1.65.33,0,.66.04.98.13l.4.11c1.55.42,2.67,1.77,2.79,3.36.18,2.37.16,5.24-.07,8.37.72.25,1.44.51,2.15.78,1.83-2.54,3.66-4.76,5.33-6.45.72-.73,1.68-1.14,2.7-1.14.55,0,1.09.12,1.6.35l.38.18c1.45.67,2.32,2.2,2.16,3.79-.23,2.36-.75,5.18-1.52,8.22.67.38,1.34.76,1.99,1.15,2.25-2.18,4.43-4.04,6.36-5.42.65-.46,1.41-.71,2.2-.71s1.53.24,2.17.69l.34.24c1.31.92,1.9,2.57,1.47,4.12-.64,2.29-1.64,4.97-2.92,7.83.59.49,1.18.98,1.76,1.48,2.59-1.76,5.07-3.21,7.21-4.24.52-.25,1.07-.37,1.64-.37,1.01,0,1.96.39,2.67,1.11l.3.3c1.13,1.13,1.42,2.86.74,4.31-1.03,2.15-2.48,4.62-4.24,7.21.51.59,1.02,1.2,1.52,1.82,2.86-1.28,5.55-2.28,7.84-2.91.33-.09.67-.14,1.02-.14,1.23,0,2.39.6,3.1,1.61l.24.34c.92,1.31.9,3.07-.03,4.37-1.38,1.93-3.25,4.11-5.43,6.35.39.66.77,1.32,1.15,1.99,3.04-.76,5.86-1.28,8.22-1.51.12-.01.24-.02.37-.02,1.47,0,2.81.86,3.43,2.18l.18.38c.67,1.45.36,3.18-.79,4.3-1.7,1.67-3.92,3.49-6.46,5.32.27.72.53,1.44.78,2.16,1.71-.12,3.34-.19,4.87-.19,1.25,0,2.43.04,3.5.13,1.6.13,2.95,1.25,3.36,2.79l.11.4c.41,1.54-.2,3.19-1.52,4.09-1.96,1.34-4.47,2.76-7.3,4.13.14.76.28,1.51.39,2.25,3.12.32,5.96.8,8.27,1.4,1.55.4,2.69,1.74,2.82,3.33l.04.42c.14,1.59-.75,3.11-2.21,3.77-2.17.99-4.89,1.95-7.92,2.8,0,.76,0,1.52,0,2.27,3.03.86,5.75,1.83,7.92,2.82,1.46.66,2.34,2.18,2.2,3.77l-.04.42c-.14,1.59-1.28,2.93-2.83,3.33-2.31.59-5.15,1.07-8.28,1.38-.12.74-.25,1.49-.4,2.25,2.83,1.37,5.34,2.79,7.3,4.14,1.32.91,1.93,2.55,1.51,4.1l-.11.41c-.42,1.54-1.77,2.66-3.37,2.79-1.04.08-2.19.12-3.4.12-1.55,0-3.21-.07-4.97-.19-.25.72-.51,1.44-.78,2.15,2.54,1.84,4.75,3.67,6.45,5.33,1.14,1.12,1.46,2.85.78,4.3l-.17.38c-.62,1.33-1.96,2.18-3.43,2.18-.12,0-.25,0-.37-.02-2.36-.23-5.18-.76-8.22-1.52-.38.68-.76,1.34-1.15,1.99,2.18,2.25,4.04,4.43,5.42,6.36.93,1.3.94,3.06.02,4.37l-.24.34c-.71,1.01-1.86,1.61-3.09,1.61-.34,0-.69-.05-1.02-.14-2.29-.64-4.98-1.64-7.83-2.93-.49.6-.98,1.18-1.48,1.76,1.76,2.59,3.21,5.07,4.23,7.21.69,1.45.39,3.18-.74,4.31l-.29.29c-.71.71-1.66,1.11-2.67,1.11h0c-.56,0-1.13-.13-1.64-.37-2.14-1.03-4.61-2.48-7.21-4.24-.58.5-1.17.99-1.76,1.47,1.28,2.86,2.28,5.55,2.92,7.84.43,1.54-.16,3.2-1.48,4.11l-.34.24c-.64.45-1.39.68-2.17.68s-1.56-.25-2.21-.71c-1.93-1.38-4.11-3.24-6.35-5.42-.66.39-1.32.77-1.99,1.15.76,3.03,1.28,5.85,1.51,8.22.15,1.59-.72,3.12-2.17,3.79l-.38.18c-.5.23-1.04.35-1.59.35-1.01,0-2-.42-2.7-1.14-1.67-1.7-3.49-3.92-5.32-6.46-.71.27-1.43.53-2.15.78.23,3.13.25,6,.06,8.37-.13,1.6-1.25,2.95-2.79,3.36l-.4.11c-.32.09-.65.13-.98.13-1.25,0-2.41-.62-3.12-1.65-1.35-1.97-2.77-4.48-4.13-7.3-.76.14-1.51.28-2.25.39-.32,3.13-.8,5.97-1.39,8.27-.4,1.55-1.74,2.69-3.33,2.83l-.42.04c-.11,0-.22.01-.33.01ZM159.7,197.49c-1.68,0-3.42,1.27-3.42,3.39l-.04,34.4c0,.9.35,1.75.98,2.38.65.65,1.51,1.01,2.42,1.01.2,0,.4-.02.59-.05,9.29-1.6,17.91-5.15,25.61-10.56.84-.59,1.38-1.51,1.47-2.53.09-1.01-.25-1.96-.96-2.67l-24.29-24.36c-.83-.83-1.74-1-2.36-1ZM141.36,197.46c-.62,0-1.53.17-2.35,1l-24.35,24.3c-.71.71-1.06,1.66-.97,2.66.09,1.02.62,1.94,1.46,2.54,7.69,5.42,16.29,9,25.58,10.62.2.04.4.05.6.05,1.87,0,3.4-1.52,3.4-3.38l.04-34.4c0-1.17-.52-1.94-.96-2.38-.65-.65-1.54-1.02-2.46-1.02ZM176.1,180.85c-1.66,0-2.7,1.08-3.12,2.09-.42,1.01-.45,2.5.73,3.68l24.29,24.36c.63.63,1.48.99,2.37.99,1.12,0,2.18-.55,2.83-1.47,5.43-7.69,9.01-16.29,10.64-25.58.18-1-.1-2.02-.75-2.8-.64-.77-1.58-1.21-2.58-1.21l-34.4-.06v-1.5s0,1.5,0,1.5ZM91.9,180.85c-1,0-1.94.44-2.58,1.2-.65.78-.93,1.79-.75,2.8,1.61,9.29,5.16,17.91,10.57,25.6.65.93,1.71,1.48,2.83,1.48.89,0,1.73-.35,2.37-.98l24.35-24.3c1.18-1.18,1.15-2.68.74-3.69s-1.46-2.09-3.12-2.09l-34.4-.03v-1.5s0,1.5,0,1.5ZM151.21,167.27c-2.32,0-4.5.9-6.14,2.54s-2.54,3.82-2.54,6.14.9,4.5,2.54,6.14c1.64,1.64,3.82,2.54,6.14,2.54s4.5-.9,6.14-2.54c3.39-3.39,3.39-8.9,0-12.29-1.64-1.64-3.82-2.54-6.14-2.54ZM200.42,138.19c-.89,0-1.74.35-2.37.98l-24.37,24.37c-1.18,1.18-1.15,2.67-.73,3.68.42,1.01,1.46,2.09,3.12,2.09l34.47.06c1,0,1.94-.44,2.58-1.2.65-.77.93-1.79.76-2.79-1.6-9.34-5.18-17.99-10.62-25.72-.65-.92-1.71-1.48-2.83-1.48ZM102.03,138.29c-1.12,0-2.18.55-2.83,1.47-5.42,7.69-8.99,16.3-10.61,25.59-.17,1,.1,2.02.75,2.8.64.77,1.58,1.21,2.58,1.21l34.4.03c1.67,0,2.71-1.08,3.13-2.09.42-1.01.45-2.51-.73-3.68l-24.31-24.34c-.63-.63-1.47-.98-2.37-.98ZM159.65,113.27c-1.88,0-3.4,1.52-3.4,3.39v34.4c0,1.22.56,2.01,1.03,2.45.64.6,1.5.94,2.38.94.62,0,1.53-.17,2.36-1l24.32-24.32c.71-.71,1.06-1.66.97-2.67-.09-1.02-.62-1.94-1.46-2.54-7.69-5.42-16.3-8.98-25.59-10.6-.2-.03-.4-.05-.6-.05ZM141.37,113.27c-.2,0-.4.02-.6.05-9.29,1.61-17.9,5.17-25.6,10.58-.84.59-1.38,1.52-1.46,2.54-.09,1.01.26,1.95.97,2.67l24.31,24.34c.83.83,1.74,1,2.36,1,1.68,0,3.42-1.27,3.42-3.39v-34.4c0-1.87-1.52-3.39-3.39-3.39Z"/>
          <path class="cls-3" d="M143.84,86.83c.89,0,1.7.52,2.08,1.34,1.11,2.45,2.15,5.51,3.04,8.82.75-.02,1.5-.03,2.26-.03s1.53.01,2.29.03c.89-3.31,1.92-6.37,3.04-8.82.37-.82,1.19-1.34,2.07-1.34.07,0,.13,0,.2,0l.42.04c.97.08,1.77.77,2.01,1.71.67,2.6,1.16,5.8,1.46,9.21,1.5.22,2.99.48,4.48.79,1.45-3.1,3-5.93,4.52-8.15.43-.63,1.14-.99,1.88-.99.2,0,.4.03.59.08l.4.11c.94.25,1.61,1.06,1.68,2.03.21,2.68.14,5.9-.16,9.3,1.44.48,2.87.99,4.29,1.55,1.96-2.8,3.97-5.31,5.85-7.22.44-.45,1.03-.69,1.63-.69.33,0,.65.07.96.21l.38.18c.88.41,1.4,1.32,1.3,2.29-.26,2.67-.89,5.82-1.77,9.12,1.34.72,2.66,1.48,3.96,2.28,2.41-2.41,4.83-4.53,7.01-6.09.4-.28.87-.43,1.33-.43s.91.14,1.31.41l.34.24c.79.56,1.15,1.55.89,2.48-.72,2.58-1.89,5.58-3.33,8.67,1.19.94,2.35,1.92,3.5,2.94,2.8-1.96,5.55-3.63,7.97-4.78.32-.15.65-.23.99-.23.59,0,1.17.23,1.61.67l.29.29c.69.69.86,1.72.44,2.6-1.16,2.42-2.83,5.17-4.78,7.97,1.03,1.16,2.03,2.35,2.98,3.55,3.09-1.44,6.09-2.6,8.68-3.32.2-.06.41-.08.62-.08.73,0,1.43.35,1.87.97l.24.34c.56.8.55,1.85-.02,2.64-1.56,2.18-3.68,4.59-6.09,7,.8,1.3,1.56,2.62,2.28,3.96,3.3-.88,6.45-1.5,9.12-1.76.07,0,.15-.01.22-.01.88,0,1.69.51,2.07,1.32l.18.38c.41.88.22,1.91-.48,2.59-1.92,1.88-4.43,3.89-7.23,5.85.56,1.42,1.08,2.85,1.55,4.29,2.07-.18,4.07-.27,5.92-.27,1.2,0,2.33.04,3.38.12.97.08,1.78.75,2.03,1.68l.11.4c.25.94-.12,1.92-.92,2.47-2.22,1.52-5.05,3.07-8.15,4.51.3,1.49.57,2.98.79,4.48,3.41.3,6.6.79,9.2,1.47.94.24,1.62,1.04,1.71,2.01l.04.42c.08.97-.45,1.87-1.33,2.27-2.45,1.11-5.51,2.15-8.82,3.03.04,1.52.04,3.03,0,4.55,3.31.89,6.37,1.93,8.82,3.05.88.4,1.42,1.31,1.33,2.28l-.04.42c-.09.97-.77,1.77-1.71,2.01-2.6.67-5.8,1.16-9.21,1.45-.22,1.5-.49,2.99-.79,4.48,3.1,1.45,5.93,3,8.15,4.53.8.55,1.17,1.54.91,2.47l-.11.4c-.25.94-1.06,1.61-2.03,1.68-1.02.08-2.13.12-3.29.12-1.88,0-3.91-.1-6.01-.28-.48,1.44-1,2.87-1.56,4.29,2.79,1.96,5.3,3.98,7.22,5.86.69.68.88,1.71.47,2.59l-.18.38c-.38.81-1.19,1.31-2.07,1.31-.07,0-.15,0-.23-.01-2.67-.26-5.82-.89-9.12-1.78-.72,1.34-1.48,2.66-2.28,3.96,2.41,2.41,4.53,4.83,6.08,7.01.56.79.57,1.84.01,2.64l-.24.34c-.44.62-1.13.97-1.87.97-.21,0-.41-.03-.62-.08-2.58-.72-5.58-1.89-8.67-3.33-.94,1.19-1.92,2.35-2.94,3.49,1.95,2.8,3.62,5.55,4.78,7.97.42.88.24,1.91-.44,2.6l-.29.29c-.44.44-1.02.67-1.61.67-.34,0-.67-.07-.99-.23-2.42-1.16-5.17-2.83-7.96-4.79-1.14,1.02-2.31,1.99-3.5,2.93,1.44,3.09,2.6,6.09,3.32,8.68.26.94-.09,1.93-.89,2.48l-.34.24c-.39.27-.85.41-1.3.41s-.93-.14-1.33-.43c-2.18-1.56-4.6-3.68-7.01-6.09-1.3.8-2.62,1.56-3.96,2.28.88,3.3,1.51,6.45,1.76,9.12.09.97-.43,1.88-1.31,2.29l-.38.18c-.31.14-.64.21-.96.21-.6,0-1.19-.24-1.63-.69-1.88-1.92-3.89-4.43-5.85-7.23-1.42.56-2.85,1.08-4.29,1.55.29,3.4.36,6.62.15,9.3-.08.97-.75,1.78-1.68,2.03l-.4.11c-.2.05-.39.08-.59.08-.74,0-1.45-.36-1.88-1-1.52-2.22-3.07-5.05-4.51-8.15-1.49.3-2.98.57-4.48.79-.3,3.41-.79,6.6-1.46,9.2-.24.94-1.04,1.62-2.01,1.71l-.42.04c-.07,0-.13,0-.2,0-.89,0-1.7-.52-2.07-1.34-1.11-2.45-2.15-5.51-3.03-8.82-.74.02-1.47.03-2.21.03-.78,0-1.56-.01-2.34-.03-.89,3.31-1.93,6.37-3.04,8.82-.37.82-1.19,1.34-2.07,1.34-.07,0-.13,0-.2,0l-.42-.04c-.97-.09-1.77-.77-2.01-1.71-.67-2.6-1.16-5.8-1.45-9.21-1.5-.22-2.99-.48-4.48-.79-1.45,3.1-3,5.93-4.52,8.15-.43.63-1.14.99-1.88.99-.2,0-.4-.03-.59-.08l-.4-.11c-.94-.25-1.61-1.06-1.68-2.03-.21-2.68-.13-5.9.17-9.3-1.44-.48-2.87-.99-4.29-1.56-1.96,2.79-3.98,5.3-5.86,7.22-.44.45-1.03.69-1.63.69-.33,0-.65-.07-.96-.21l-.38-.18c-.88-.41-1.4-1.33-1.3-2.29.26-2.67.89-5.82,1.77-9.12-1.34-.72-2.66-1.48-3.96-2.28-2.41,2.41-4.83,4.53-7.01,6.08-.4.29-.86.43-1.33.43s-.91-.14-1.31-.41l-.34-.24c-.79-.56-1.15-1.55-.89-2.48.72-2.58,1.89-5.58,3.33-8.67-1.19-.94-2.35-1.92-3.49-2.94-2.8,1.95-5.55,3.62-7.97,4.78-.32.15-.65.22-.99.22-.59,0-1.17-.23-1.61-.67l-.29-.29c-.69-.69-.86-1.72-.44-2.6,1.16-2.42,2.83-5.17,4.79-7.96-1.02-1.14-2-2.31-2.94-3.5-3.09,1.44-6.09,2.6-8.68,3.32-.2.06-.41.08-.62.08-.73,0-1.43-.35-1.87-.97l-.24-.34c-.56-.8-.55-1.85.02-2.64,1.56-2.18,3.68-4.6,6.09-7.01-.8-1.3-1.56-2.62-2.28-3.96-3.29.88-6.45,1.51-9.12,1.76-.07,0-.15.01-.22.01-.88,0-1.69-.51-2.07-1.32l-.18-.38c-.41-.88-.22-1.91.47-2.59,1.92-1.88,4.43-3.89,7.22-5.85-.56-1.42-1.08-2.85-1.55-4.29-2.08.18-4.09.28-5.95.28-1.19,0-2.31-.04-3.35-.12-.97-.08-1.78-.75-2.03-1.68l-.11-.4c-.25-.94.12-1.92.92-2.47,2.22-1.52,5.05-3.07,8.15-4.52-.3-1.49-.57-2.98-.79-4.48-3.41-.3-6.6-.79-9.21-1.46-.94-.24-1.62-1.04-1.71-2.01l-.04-.42c-.08-.97.45-1.87,1.33-2.27,2.45-1.11,5.51-2.15,8.82-3.03-.04-1.52-.04-3.03,0-4.55-3.31-.89-6.37-1.93-8.82-3.04-.88-.4-1.42-1.31-1.33-2.28l.04-.42c.08-.97.77-1.77,1.71-2.01,2.6-.67,5.8-1.16,9.21-1.46.22-1.5.48-2.99.79-4.48-3.1-1.45-5.93-3-8.15-4.52-.8-.55-1.17-1.53-.92-2.47l.11-.4c.25-.94,1.06-1.61,2.03-1.68,1.03-.08,2.14-.12,3.31-.12,1.87,0,3.89.1,5.99.28.48-1.44.99-2.87,1.56-4.29-2.8-1.96-5.31-3.98-7.22-5.85-.69-.68-.88-1.71-.47-2.59l.18-.38c.38-.81,1.19-1.31,2.07-1.31.07,0,.15,0,.22.01,2.67.26,5.82.89,9.12,1.77.72-1.34,1.48-2.66,2.28-3.96-2.41-2.41-4.53-4.83-6.09-7.01-.56-.79-.57-1.84-.01-2.64l.24-.34c.43-.62,1.13-.97,1.87-.97.21,0,.41.03.62.08,2.58.72,5.58,1.89,8.67,3.33.94-1.19,1.92-2.35,2.94-3.5-1.96-2.8-3.63-5.55-4.78-7.97-.42-.88-.24-1.91.44-2.6l.29-.29c.44-.44,1.02-.67,1.61-.67.33,0,.67.07.99.23,2.42,1.16,5.17,2.83,7.97,4.79,1.14-1.02,2.31-2,3.5-2.94-1.44-3.09-2.61-6.09-3.32-8.68-.26-.94.09-1.93.89-2.48l.34-.24c.39-.28.85-.41,1.31-.41s.93.14,1.33.43c2.18,1.56,4.6,3.68,7.01,6.09,1.3-.8,2.62-1.56,3.96-2.28-.88-3.3-1.51-6.45-1.77-9.12-.09-.97.43-1.88,1.31-2.29l.38-.18c.31-.14.64-.21.96-.21.6,0,1.19.24,1.63.69,1.88,1.92,3.89,4.43,5.85,7.22,1.42-.56,2.85-1.08,4.29-1.55-.3-3.4-.37-6.62-.16-9.3.08-.97.75-1.78,1.68-2.03l.4-.11c.2-.05.4-.08.59-.08.74,0,1.45.36,1.88.99,1.52,2.22,3.07,5.05,4.52,8.15,1.49-.3,2.98-.57,4.48-.79.3-3.41.79-6.6,1.46-9.2.24-.94,1.04-1.62,2.01-1.71l.42-.04c.07,0,.13,0,.2,0M141.35,155.94c2.51,0,4.92-1.95,4.92-4.89v-34.4c.01-2.75-2.25-4.89-4.89-4.89-.28,0-.57.02-.85.07-9.25,1.6-18.22,5.22-26.21,10.84-2.5,1.76-2.85,5.33-.69,7.49l24.31,24.34c.99,1,2.22,1.44,3.42,1.44M159.65,155.95c1.2,0,2.42-.45,3.42-1.44l24.32-24.32c2.16-2.16,1.8-5.73-.69-7.49-7.99-5.62-16.95-9.24-26.2-10.85-.29-.05-.57-.07-.86-.07-2.65,0-4.9,2.14-4.9,4.89v34.4c0,2.94,2.4,4.89,4.91,4.89M210.53,170.88c3.04,0,5.33-2.75,4.81-5.75-1.6-9.29-5.22-18.3-10.87-26.33-.98-1.39-2.52-2.11-4.06-2.11-1.23,0-2.47.46-3.43,1.42l-24.37,24.37c-3.07,3.07-.9,8.33,3.44,8.33l34.47.06h0M126.32,170.88c4.35,0,6.53-5.26,3.45-8.33l-24.31-24.34c-.96-.96-2.2-1.42-3.43-1.42-1.54,0-3.08.72-4.06,2.11-5.63,7.98-9.25,16.95-10.86,26.19-.52,3,1.77,5.76,4.81,5.76l34.4.03h0M151.21,186.15c2.61,0,5.22-.99,7.2-2.98,3.98-3.98,3.98-10.43,0-14.41-1.99-1.99-4.6-2.98-7.2-2.98-2.61,0-5.22.99-7.2,2.98-3.98,3.98-3.98,10.43,0,14.41,1.99,1.99,4.6,2.98,7.2,2.98M200.36,213.46c1.54,0,3.08-.72,4.05-2.11,5.64-7.98,9.27-16.94,10.89-26.18.53-3-1.76-5.76-4.8-5.77l-34.4-.06h0c-4.34,0-6.52,5.25-3.46,8.33l24.29,24.36c.96.96,2.2,1.43,3.44,1.43M101.97,213.43c1.23,0,2.47-.46,3.43-1.42l24.35-24.3c3.08-3.07.91-8.33-3.44-8.34l-34.4-.03h0c-3.04,0-5.33,2.76-4.81,5.75,1.6,9.25,5.21,18.22,10.82,26.21.98,1.39,2.52,2.12,4.06,2.12M141.33,240.14c2.64,0,4.9-2.13,4.9-4.88l.04-34.4c0-2.95-2.4-4.9-4.92-4.9-1.2,0-2.42.44-3.41,1.44l-24.35,24.3c-2.16,2.15-1.81,5.73.68,7.49,7.98,5.63,16.94,9.26,26.19,10.88.29.05.58.08.86.08M159.64,240.16c.28,0,.56-.02.85-.07,9.25-1.59,18.22-5.2,26.22-10.81,2.5-1.75,2.86-5.33.7-7.49l-24.29-24.36c-1-1-2.22-1.44-3.42-1.44-2.51,0-4.91,1.94-4.92,4.89l-.04,34.4c0,2.75,2.25,4.89,4.9,4.89M143.84,83.83c-.15,0-.31,0-.46.02l-.41.04c-2.22.19-4.09,1.78-4.65,3.94-.54,2.09-.98,4.61-1.31,7.36-.01,0-.02,0-.03,0-1.24-2.48-2.52-4.69-3.74-6.47-.99-1.44-2.61-2.3-4.35-2.3-.46,0-.92.06-1.37.18l-.4.11c-2.16.58-3.73,2.46-3.9,4.69-.17,2.15-.17,4.69,0,7.45-.01,0-.03.01-.04.02-1.65-2.22-3.29-4.17-4.8-5.7-.99-1.01-2.36-1.59-3.77-1.59-.78,0-1.53.17-2.23.49l-.38.18c-2.02.94-3.24,3.07-3.02,5.3.21,2.14.65,4.64,1.28,7.33-.02,0-.03.02-.05.03-2.01-1.89-3.95-3.52-5.7-4.78-.9-.65-1.97-.99-3.08-.99s-2.13.33-3.03.95l-.34.24c-1.83,1.28-2.65,3.59-2.06,5.74.58,2.08,1.45,4.47,2.54,7-.01.01-.03.02-.04.03-2.31-1.52-4.51-2.79-6.45-3.72-.71-.34-1.5-.52-2.28-.52-1.41,0-2.73.55-3.73,1.55l-.29.29c-1.58,1.58-1.99,4-1.03,6.01.93,1.94,2.19,4.14,3.71,6.45-.01.01-.02.03-.03.04-2.54-1.09-4.93-1.96-7-2.54-.46-.13-.94-.19-1.42-.19-1.72,0-3.34.84-4.32,2.25l-.24.34c-1.28,1.83-1.27,4.28.03,6.1,1.25,1.75,2.88,3.7,4.77,5.71,0,.02-.02.03-.03.05-2.68-.64-5.18-1.08-7.33-1.29-.17-.02-.35-.03-.52-.03-2.04,0-3.92,1.2-4.79,3.05l-.18.38c-.95,2.03-.51,4.44,1.09,6,1.54,1.51,3.48,3.15,5.7,4.8,0,.01-.01.03-.02.04-1.36-.08-2.67-.12-3.91-.12-1.26,0-2.46.04-3.55.13-2.23.17-4.12,1.74-4.7,3.89l-.11.41c-.58,2.15.27,4.45,2.12,5.72,1.78,1.22,3.99,2.5,6.47,3.75,0,.01,0,.02,0,.03-2.76.32-5.27.76-7.36,1.3-2.17.56-3.75,2.43-3.95,4.65l-.04.41c-.19,2.23,1.04,4.34,3.08,5.27,1.97.9,4.37,1.77,7.03,2.57v.03c-2.66.79-5.06,1.67-7.03,2.56-2.04.92-3.27,3.04-3.08,5.27l.04.42c.19,2.22,1.78,4.09,3.94,4.65,2.09.54,4.6.99,7.36,1.31v.03c-2.47,1.24-4.68,2.52-6.46,3.74-1.84,1.26-2.7,3.56-2.12,5.72l.11.41c.58,2.15,2.46,3.72,4.69,3.9,1.1.09,2.31.13,3.59.13s2.52-.04,3.87-.12c0,.01.01.03.02.04-2.22,1.65-4.17,3.29-5.71,4.79-1.6,1.56-2.04,3.98-1.09,6l.18.38c.86,1.85,2.74,3.05,4.79,3.05.17,0,.34,0,.51-.02,2.14-.21,4.64-.64,7.33-1.28,0,.02.02.03.03.05-1.9,2.01-3.53,3.95-4.78,5.7-1.3,1.82-1.32,4.27-.04,6.1l.24.34c.98,1.41,2.6,2.25,4.32,2.25.48,0,.96-.07,1.42-.19,2.08-.58,4.46-1.44,7-2.54.01.01.02.03.03.04-1.52,2.31-2.79,4.51-3.72,6.45-.97,2.02-.55,4.43,1.02,6.01l.3.3c1,1,2.32,1.55,3.73,1.55.78,0,1.57-.18,2.28-.52,1.95-.93,4.15-2.2,6.46-3.71.01.01.03.02.04.03-1.09,2.53-1.96,4.92-2.54,7-.6,2.16.23,4.47,2.05,5.75l.34.24c.89.63,1.94.96,3.03.96s2.17-.34,3.07-.99c1.75-1.25,3.7-2.88,5.71-4.77.02,0,.03.02.05.03-.64,2.69-1.08,5.19-1.29,7.33-.22,2.23,1,4.36,3.02,5.3l.38.18c.7.33,1.45.5,2.23.5,1.41,0,2.78-.58,3.77-1.58,1.51-1.54,3.15-3.48,4.8-5.7.01,0,.03.01.04.02-.16,2.76-.16,5.3,0,7.45.17,2.23,1.74,4.12,3.89,4.7l.41.11c.44.12.9.18,1.37.18,1.74,0,3.37-.86,4.35-2.3,1.22-1.78,2.5-3.99,3.75-6.47.01,0,.02,0,.03,0,.32,2.76.76,5.27,1.3,7.36.56,2.17,2.43,3.75,4.65,3.95l.41.04c.16.01.31.02.47.02,2.06,0,3.95-1.22,4.8-3.1.9-1.97,1.77-4.37,2.57-7.03,0,0,.02,0,.03,0,.79,2.66,1.67,5.06,2.56,7.03.85,1.88,2.74,3.1,4.81,3.1.15,0,.31,0,.46-.02l.41-.04c2.23-.19,4.1-1.78,4.66-3.94.54-2.09.99-4.6,1.31-7.36.01,0,.02,0,.03,0,1.24,2.48,2.52,4.69,3.74,6.47.99,1.44,2.62,2.3,4.36,2.3.46,0,.92-.06,1.36-.18l.41-.11c2.15-.58,3.72-2.46,3.9-4.69.17-2.15.17-4.69.01-7.45.01,0,.03-.01.04-.02,1.65,2.22,3.29,4.17,4.79,5.71.99,1.01,2.36,1.59,3.77,1.59.77,0,1.52-.17,2.23-.49l.38-.18c2.02-.94,3.24-3.07,3.02-5.3-.21-2.14-.64-4.64-1.28-7.33.02,0,.03-.02.05-.03,2.01,1.89,3.95,3.53,5.7,4.78.9.65,1.97.99,3.08.99s2.13-.33,3.02-.95l.34-.24c1.83-1.28,2.66-3.59,2.06-5.74-.58-2.07-1.44-4.46-2.53-7,.01-.01.03-.02.04-.03,2.31,1.52,4.51,2.79,6.45,3.72.71.34,1.5.52,2.29.52,1.41,0,2.73-.55,3.73-1.54l.3-.3c1.58-1.57,1.99-3.99,1.03-6.01-.93-1.95-2.2-4.15-3.71-6.46.01-.01.02-.03.03-.04,2.54,1.1,4.92,1.96,7,2.54.47.13.95.2,1.43.2,1.72,0,3.33-.84,4.32-2.25l.24-.34c1.28-1.83,1.27-4.28-.03-6.1-1.25-1.75-2.88-3.7-4.77-5.71,0-.02.02-.03.03-.05,2.68.64,5.18,1.08,7.33,1.29.17.02.35.03.52.03,2.04,0,3.92-1.19,4.78-3.04l.18-.38c.94-2.02.51-4.43-1.09-6-1.54-1.51-3.48-3.15-5.7-4.8,0-.01.01-.03.02-.04,1.37.08,2.69.12,3.93.12s2.44-.04,3.52-.13c2.23-.17,4.12-1.74,4.7-3.89l.11-.4c.58-2.16-.27-4.46-2.11-5.72-1.78-1.22-3.99-2.5-6.47-3.75,0-.01,0-.02,0-.03,2.76-.32,5.27-.76,7.36-1.3,2.17-.56,3.75-2.42,3.95-4.65l.04-.41c.2-2.23-1.04-4.35-3.08-5.27-1.97-.9-4.37-1.77-7.03-2.57v-.03c2.66-.79,5.06-1.67,7.03-2.56,2.04-.92,3.28-3.04,3.08-5.27l-.04-.41c-.19-2.23-1.78-4.1-3.94-4.66-2.09-.54-4.6-.99-7.36-1.31v-.03c2.47-1.24,4.68-2.52,6.47-3.74,1.85-1.27,2.7-3.56,2.12-5.72l-.11-.4c-.57-2.16-2.46-3.72-4.69-3.9-1.11-.09-2.33-.13-3.62-.13-1.22,0-2.5.04-3.84.12,0-.01-.01-.03-.02-.04,2.22-1.65,4.17-3.28,5.71-4.79,1.6-1.57,2.04-3.98,1.1-6l-.18-.38c-.86-1.85-2.74-3.05-4.79-3.05-.17,0-.34,0-.51.02-2.14.21-4.64.64-7.33,1.28,0-.02-.02-.03-.03-.05,1.9-2.01,3.53-3.95,4.78-5.7,1.3-1.82,1.32-4.27.04-6.1l-.23-.34c-.99-1.42-2.61-2.26-4.33-2.26-.48,0-.95.06-1.42.19-2.08.58-4.46,1.44-7,2.53l-.08-.1c1.52-2.31,2.79-4.51,3.71-6.45.96-2.02.55-4.44-1.03-6.01l-.29-.29c-1-1-2.32-1.55-3.73-1.55-.78,0-1.57.18-2.28.52-1.94.93-4.14,2.2-6.45,3.71-.01-.01-.03-.02-.04-.03,1.09-2.54,1.96-4.93,2.54-7,.6-2.15-.23-4.46-2.06-5.74l-.34-.24c-.89-.63-1.94-.96-3.03-.96-1.11,0-2.17.34-3.07.99-1.75,1.25-3.7,2.88-5.71,4.77-.02,0-.03-.02-.05-.03.64-2.69,1.07-5.19,1.28-7.33.22-2.23-1-4.36-3.02-5.3l-.37-.17c-.71-.33-1.46-.5-2.23-.5-1.41,0-2.78.58-3.77,1.59-1.51,1.54-3.15,3.48-4.8,5.7-.01,0-.03-.01-.04-.02.16-2.76.16-5.3,0-7.45-.17-2.23-1.74-4.12-3.9-4.69l-.41-.11c-.44-.12-.9-.18-1.36-.18-1.74,0-3.37.86-4.35,2.3-1.22,1.78-2.5,3.99-3.74,6.47-.01,0-.02,0-.03,0-.32-2.76-.77-5.27-1.3-7.36-.56-2.17-2.43-3.75-4.65-3.95l-.41-.04c-.16-.01-.31-.02-.46-.02-2.06,0-3.95,1.22-4.81,3.1-.9,1.97-1.77,4.37-2.57,7.03h-.03c-.8-2.66-1.67-5.06-2.57-7.03-.86-1.88-2.74-3.1-4.81-3.1h0ZM141.35,152.94c-.49,0-.92-.19-1.3-.56l-24.31-24.34c-.53-.53-.56-1.15-.53-1.48.05-.58.35-1.1.83-1.44,7.51-5.28,15.92-8.76,24.99-10.33.11-.02.23-.03.34-.03h0c.5,0,.98.2,1.34.55.26.25.56.69.56,1.33v34.4c0,1.3-1.13,1.89-1.93,1.89h0ZM159.65,152.95c-.5,0-.99-.19-1.35-.53-.37-.35-.56-.81-.56-1.36v-34.4c0-1.04.86-1.89,1.91-1.89.11,0,.23.01.34.03,9.07,1.58,17.48,5.06,24.99,10.35.48.34.78.86.83,1.44.03.32,0,.95-.54,1.48l-24.32,24.32c-.37.37-.81.56-1.3.56h0ZM210.52,170.88v-3s-34.46-.06-34.46-.06c-1.13,0-1.59-.81-1.74-1.16-.14-.35-.39-1.25.41-2.05l24.37-24.37c.45-.45.96-.54,1.31-.54.65,0,1.23.31,1.61.84,5.31,7.54,8.8,15.99,10.37,25.11.13.77-.21,1.32-.43,1.57-.21.25-.68.67-1.43.67v3h0ZM126.31,170.88v-3s-34.4-.03-34.4-.03c-.76,0-1.22-.42-1.43-.67-.22-.26-.56-.8-.42-1.57,1.58-9.07,5.07-17.47,10.36-24.98.38-.53.96-.84,1.61-.84.35,0,.86.09,1.31.54l24.31,24.34c.8.8.55,1.7.41,2.05s-.6,1.16-1.74,1.16v3h0ZM151.21,183.15c-1.92,0-3.72-.75-5.08-2.11-2.8-2.8-2.8-7.36,0-10.17,1.36-1.36,3.16-2.11,5.08-2.11,1.92,0,3.72.75,5.08,2.11,2.8,2.8,2.8,7.36,0,10.17-1.36,1.36-3.16,2.11-5.08,2.11h0ZM200.36,210.46c-.35,0-.86-.09-1.31-.54l-24.29-24.36c-.8-.8-.55-1.7-.41-2.05.15-.35.6-1.16,1.74-1.16l34.4.06c.76,0,1.22.42,1.43.67.22.26.56.8.42,1.57-1.59,9.07-5.09,17.47-10.39,24.97-.38.53-.96.84-1.6.84h0ZM101.97,210.43c-.65,0-1.23-.31-1.61-.84-5.28-7.51-8.75-15.92-10.32-25-.13-.77.21-1.32.42-1.57.21-.25.68-.67,1.43-.67l34.4.03c1.14,0,1.59.81,1.74,1.16.14.35.39,1.25-.41,2.05l-24.35,24.3c-.45.45-.96.54-1.31.54h0ZM141.33,237.14c-.11,0-.23-.01-.34-.03-9.07-1.59-17.47-5.08-24.98-10.37-.48-.34-.78-.86-.83-1.44-.03-.32,0-.95.54-1.47l24.35-24.3c.37-.37.81-.56,1.29-.56h0c.51,0,1.04.22,1.4.58.34.34.52.79.52,1.31l-.04,34.4c0,1.04-.85,1.88-1.9,1.88h0ZM159.64,237.16c-.51,0-.99-.2-1.36-.57-.25-.25-.55-.68-.55-1.32l.04-34.4c0-1.3,1.12-1.89,1.92-1.89.49,0,.92.19,1.3.56l24.29,24.36c.53.53.56,1.15.53,1.48-.05.58-.35,1.1-.83,1.44-7.52,5.28-15.93,8.74-25,10.31-.11.02-.23.03-.34.03h0Z"/>
        </g>
        <g>
          <path class="cls-2" d="M80.87,175.96c0,19.43,7.87,37.01,20.6,49.74,12.73,12.73,30.32,20.6,49.74,20.6,19.43,0,37.01-7.87,49.74-20.6,12.73-12.73,20.6-30.32,20.6-49.74,0-19.43-7.87-37.01-20.6-49.74-12.73-12.73-30.32-20.6-49.74-20.6-19.43,0-37.01,7.87-49.74,20.6-12.73,12.73-20.6,30.32-20.6,49.74Z"/>
          <g>
            <path class="cls-6" d="M79.5,175.96c0,2.22.1,4.4.3,6.57,1.56,17.18,9.18,32.62,20.71,44.15,12.97,12.97,30.91,21,50.71,21,19.81,0,37.73-8.03,50.72-21,11.8-11.8,19.5-27.69,20.81-45.37.13-1.77.2-3.55.2-5.35,0-7.5-1.15-14.73-3.29-21.52-3.5-11.15-9.65-21.13-17.71-29.2-3.25-3.25-6.8-6.18-10.62-8.76-1.43-.96-2.89-1.88-4.39-2.74-.51-.29-1-.58-1.51-.84-10.17-5.52-21.81-8.65-34.2-8.65-12.38,0-24.02,3.13-34.19,8.65-.51.27-1.01.56-1.51.84-1.5.86-2.96,1.78-4.39,2.74-3.82,2.57-7.37,5.51-10.62,8.76-8.06,8.06-14.22,18.04-17.71,29.2-2.14,6.79-3.29,14.03-3.29,21.52ZM80.87,175.96c0-7.51,1.17-14.74,3.36-21.52,1.46-4.58,3.39-8.96,5.72-13.06.23-.41.46-.81.69-1.19.31-.52.63-1.03.95-1.54.06-.11.13-.22.2-.32.05-.09.11-.19.17-.28,2.74-4.28,5.93-8.24,9.51-11.83h0c12.72-12.72,30.31-20.6,49.73-20.6,19.42,0,37.02,7.87,49.74,20.6,4.18,4.18,7.82,8.86,10.85,13.97.23.39.46.79.69,1.19,2.08,3.67,3.84,7.54,5.23,11.6.05.14.1.28.15.43.12.34.23.69.34,1.03.29.87.56,1.76.8,2.65.13.44.25.87.36,1.32,1.38,5.39,2.15,11.04,2.2,16.86,0,.23,0,.46,0,.69,0,.23,0,.46,0,.69-.05,5.82-.82,11.47-2.2,16.86-.11.45-.23.88-.36,1.32-1.54,5.55-3.74,10.82-6.51,15.72-.23.41-.46.81-.69,1.19-2.9,4.9-6.38,9.42-10.37,13.47-.15.17-.31.33-.48.5l-.49.49c-4.05,3.97-8.57,7.45-13.48,10.35-.4.24-.8.47-1.19.69h0c-10.21,5.78-22.02,9.08-34.58,9.08-12.56,0-24.36-3.3-34.57-9.08-.4-.22-.81-.45-1.19-.69-4.91-2.9-9.43-6.38-13.48-10.35-.17-.17-.33-.33-.49-.49h0c-.16-.16-.32-.32-.48-.49-3.39-3.45-6.42-7.26-9.04-11.34-.46-.71-.89-1.41-1.32-2.14-.23-.39-.46-.79-.69-1.19-5.78-10.21-9.08-22.01-9.08-34.58Z"/>
            <g>
              <path class="cls-6" d="M104.39,129.14c-11.98,11.98-19.39,28.54-19.39,46.82,0,18.28,7.41,34.84,19.39,46.82,11.98,11.98,28.54,19.39,46.82,19.39,18.28,0,34.84-7.41,46.82-19.39,11.98-11.98,19.39-28.54,19.39-46.82,0-18.28-7.41-34.84-19.39-46.82-11.98-11.98-28.54-19.39-46.82-19.39-18.28,0-34.84,7.41-46.82,19.39h0ZM199.01,128.16c12.23,12.23,19.8,29.13,19.8,47.79,0,18.66-7.57,35.56-19.8,47.79-12.23,12.23-29.13,19.8-47.79,19.8-18.66,0-35.56-7.57-47.79-19.8-12.23-12.23-19.8-29.13-19.8-47.79,0-18.66,7.57-35.56,19.8-47.79,12.23-12.23,29.13-19.8,47.79-19.8,18.66,0,35.56,7.57,47.79,19.8Z"/>
              <polygon class="cls-6" points="89.36 141.03 92.93 143.1 93.62 141.91 90.04 139.85 89.36 141.03"/>
              <polygon class="cls-6" points="90.04 212.07 93.62 210 92.93 208.81 89.36 210.88 90.04 212.07"/>
              <rect class="cls-6" x="100.38" y="224.03" width="4.13" height="1.38" transform="translate(-128.89 138.26) rotate(-45)"/>
              <polygon class="cls-6" points="116.29 237.81 118.36 234.24 117.17 233.55 115.1 237.13 116.29 237.81"/>
              <polygon class="cls-6" points="187.32 237.13 185.26 233.55 184.07 234.24 186.14 237.81 187.32 237.13"/>
              <rect class="cls-6" x="199.29" y="222.66" width="1.38" height="4.13" transform="translate(-100.33 207.22) rotate(-45)"/>
              <polygon class="cls-6" points="213.07 210.88 209.49 208.81 208.81 210 212.39 212.07 213.07 210.88"/>
              <rect class="cls-6" x="217.14" y="191.74" width="1.37" height="4.13" transform="translate(-25.75 354.06) rotate(-75)"/>
              <rect class="cls-6" x="218.12" y="175.27" width="4.13" height="1.38"/>
              <rect class="cls-6" x="215.77" y="157.42" width="4.13" height="1.37" transform="translate(-33.5 61.78) rotate(-15)"/>
              <polygon class="cls-6" points="212.39 139.85 208.81 141.91 209.49 143.1 213.07 141.03 212.39 139.85"/>
              <path class="cls-7" d="M133.3,144.93c-.63.36-.84,1.16-.48,1.79.36.63,1.16.84,1.79.48.63-.36.84-1.16.48-1.79-.36-.63-1.16-.84-1.79-.48h0Z"/>
              <path class="cls-5" d="M152.97,132.47l-.22-2.04-.28,2.03.24.76.26-.75ZM153.55,157.49c.12-.18.76-1,.8-1.15.02-.14-.17-.59-.22-.71-.4-.89-.7-1.89-.95-2.83-.26-.96-.51-1.94-.72-2.92-.25.97-.52,1.95-.81,2.9-.29.93-.61,1.93-1.04,2.8-.06.12-.26.56-.24.7.04.15.65.99.77,1.17.48.78.88,1.81,1.17,2.77.32-.95.75-1.96,1.25-2.73ZM152.02,177.94l1.45-.14.14-16.27s.57-2.02,1.33-3.19c.77-1.18,1.52-1.51.69-3.34-.83-1.83-1.73-6.17-1.73-6.17l-.22-13.41.96-2.77-1.69-15.85-2.17,15.79.87,2.79-.63,13.4s-1.03,4.31-1.91,6.11c-.88,1.8-.14,2.16.59,3.36.73,1.2,1.24,3.23,1.24,3.23l-.36,16.26,1.44.19Z"/>
              <path class="cls-5" d="M136.03,149.35l-.97-1.21.54,1.46.5.37-.07-.62ZM146.17,165.23c.03-.18.27-1.03.25-1.15-.04-.1-.37-.3-.47-.35-.69-.37-1.33-.87-1.91-1.35-.6-.49-1.19-1-1.75-1.52.16.75.3,1.52.42,2.28.11.74.22,1.55.18,2.33,0,.11,0,.49.06.58.09.08.94.31,1.11.37.71.26,1.45.73,2.08,1.2-.09-.78-.11-1.65.03-2.4ZM152.73,179.21l1.19-.82-6.14-10.58s-.29-1.59-.08-2.74c.21-1.15.73-1.75-.69-2.51-1.42-.76-3.87-3.12-3.87-3.12l-5.36-8.55-.24-2.27-7.57-9.39,4.21,11.3,1.83,1.37,4.61,8.98s.77,3.31.7,4.92c-.07,1.61.71,1.47,1.81,1.87,1.09.41,2.31,1.46,2.31,1.46l5.96,10.69,1.32-.61Z"/>
              <path class="cls-5" d="M151.21,172.17c-2.09,0-3.79,1.69-3.79,3.79,0,2.09,1.69,3.79,3.79,3.79,2.09,0,3.79-1.69,3.79-3.79,0-2.09-1.69-3.79-3.79-3.79h0Z"/>
            </g>
          </g>
        </g>
      </g>
    </g>
  </g>
</svg>