<?xml version="1.0" encoding="UTF-8"?>
<svg id="Layer_2" xmlns="http://www.w3.org/2000/svg" viewBox="0 0 1010.05 216.79" preserveAspectRatio="none" >
  <defs>
    <style>
      .cls-1 {
        fill: #361200;
        fill-rule: evenodd;
      }
    </style>
  </defs>
  <g id="Layer_1-2" data-name="Layer_1">
    <g>
      <path class="cls-1" d="M108.38,83.42c13.79,0,24.98,11.19,24.98,24.98s-11.18,24.98-24.98,24.98-24.98-11.18-24.98-24.98,11.19-24.98,24.98-24.98h0Z"/>
      <path class="cls-1" d="M98.06,42.86c6.95-1.1,13.92-1.06,20.68.02v-.03s9.98-13.04,9.98-13.04c1.37-1.78,3.26-3.07,5.34-2.21l13.31,5.51c2.07.86,2.54,3.13,2.24,5.34l-2.17,16.28v.02c5.53,4.02,10.48,8.92,14.62,14.62h.02s16.28-2.18,16.28-2.18c2.22-.29,4.47.14,5.33,2.21l5.51,13.31c.86,2.08-.42,4-2.2,5.36l-13.05,9.97h0c1.1,6.95,1.06,13.92-.01,20.68h.03s13.05,9.98,13.05,9.98c1.78,1.36,3.07,3.26,2.21,5.33l-5.51,13.31c-.86,2.08-3.13,2.54-5.34,2.24l-16.28-2.17h-.02c-4.02,5.52-8.91,10.48-14.6,14.61h0s2.17,16.29,2.17,16.29c.3,2.22-.17,4.49-2.24,5.35l-13.31,5.51c-2.07.86-3.97-.42-5.33-2.21l-9.97-13.04h0c-6.95,1.09-13.93,1.06-20.69-.01h0s-9.97,13.06-9.97,13.06c-1.36,1.78-3.3,3.05-5.37,2.2l-13.31-5.51c-2.07-.86-2.5-3.11-2.21-5.33l2.17-16.27h0c-5.54-4.02-10.51-8.94-14.64-14.63l-16.27,2.18c-2.22.29-4.49-.17-5.35-2.24l-5.51-13.31c-.86-2.07.42-3.97,2.21-5.33l13.04-9.97c-1.1-6.95-1.07-13.93.01-20.7l-13.05-9.97c-1.78-1.36-3.05-3.3-2.19-5.37l5.51-13.31c.86-2.07,3.1-2.5,5.33-2.21l16.28,2.17h0c4.02-5.54,8.93-10.5,14.63-14.64h0s-2.17-16.28-2.17-16.28c-.3-2.22.13-4.47,2.21-5.33l13.31-5.52c2.08-.86,4,.42,5.37,2.2l9.97,13.05h0ZM94.87,75.77c18.02-7.47,38.69,1.09,46.16,19.12,7.46,18.02-1.1,38.69-19.12,46.16-18.02,7.46-38.69-1.1-46.16-19.12-7.46-18.02,1.1-38.69,19.12-46.15h0Z"/>
      <path class="cls-1" d="M130.79,10.5l-11.99,20.1c-1.12,1.88-2.57,4.08-4.63,4.08h-11.56c-2.06,0-3.48-2.2-4.6-4.08l-11.99-20.09h0s44.78-.01,44.78-.01h0Z"/>
      <path class="cls-1" d="M55.01,23.34l5.73,22.69c.54,2.12,1.07,4.71-.39,6.16l-8.18,8.18c-1.45,1.46-4.01.91-6.13.37l-22.69-5.73h0s31.66-31.67,31.66-31.67h0Z"/>
      <path class="cls-1" d="M10.49,85.99l20.1,11.99c1.88,1.12,4.08,2.57,4.08,4.63v11.56c0,2.06-2.2,3.48-4.08,4.6l-20.09,11.99h-.01v-44.78h0Z"/>
      <path class="cls-1" d="M23.32,161.78l22.69-5.73c2.12-.53,4.71-1.06,6.16.39l8.18,8.18c1.46,1.45.91,4.01.37,6.14l-5.73,22.68h0s-31.66-31.66-31.66-31.66h0Z"/>
      <path class="cls-1" d="M85.98,206.29l11.99-20.1c1.12-1.88,2.57-4.08,4.63-4.08h11.56c2.06,0,3.48,2.2,4.6,4.08l11.99,20.09h0s-44.78,0-44.78,0h0Z"/>
      <path class="cls-1" d="M202.9,10.5l-11.99,20.1c-1.12,1.88-2.57,4.08-4.63,4.08h-11.56c-2.06,0-3.48-2.2-4.6-4.08l-11.99-20.09h0s44.78-.01,44.78-.01h0Z"/>
      <path class="cls-1" d="M158.09,206.29l11.99-20.1c1.12-1.88,2.57-4.08,4.63-4.08h11.56c2.06,0,3.48,2.2,4.6,4.08l11.99,20.09h0s-44.78,0-44.78,0h0Z"/>
      <path class="cls-1" d="M275.02,10.5l-11.99,20.1c-1.12,1.88-2.57,4.08-4.63,4.08h-11.56c-2.06,0-3.48-2.2-4.6-4.08l-11.99-20.09h0s44.78-.01,44.78-.01h0Z"/>
      <path class="cls-1" d="M230.2,206.29l11.99-20.1c1.12-1.88,2.57-4.08,4.63-4.08h11.57c2.06,0,3.48,2.2,4.6,4.08l11.99,20.09h0s-44.78,0-44.78,0h0Z"/>
      <path class="cls-1" d="M347.13,10.5l-11.99,20.1c-1.12,1.88-2.57,4.08-4.63,4.08h-11.56c-2.06,0-3.48-2.2-4.6-4.08l-11.99-20.09h0s44.78-.01,44.78-.01h0Z"/>
      <path class="cls-1" d="M302.32,206.29l11.99-20.1c1.12-1.88,2.57-4.08,4.63-4.08h11.57c2.06,0,3.48,2.2,4.6,4.08l11.99,20.09h0s-44.78,0-44.78,0h0Z"/>
      <path class="cls-1" d="M419.24,10.5l-11.99,20.1c-1.12,1.88-2.57,4.08-4.63,4.08h-11.56c-2.06,0-3.48-2.2-4.6-4.08l-11.99-20.09h0s44.78-.01,44.78-.01h0Z"/>
      <path class="cls-1" d="M374.43,206.29l11.99-20.1c1.12-1.88,2.57-4.08,4.63-4.08h11.56c2.06,0,3.48,2.2,4.6,4.08l11.99,20.09h0s-44.78,0-44.78,0h0Z"/>
      <path class="cls-1" d="M491.36,10.5l-11.99,20.1c-1.12,1.88-2.57,4.08-4.63,4.08h-11.56c-2.06,0-3.48-2.2-4.6-4.08l-11.99-20.09h0s44.78-.01,44.78-.01h0Z"/>
      <path class="cls-1" d="M446.54,206.29l11.99-20.1c1.12-1.88,2.57-4.08,4.63-4.08h11.56c2.06,0,3.48,2.2,4.6,4.08l11.99,20.09h0s-44.78,0-44.78,0h0Z"/>
      <path class="cls-1" d="M563.47,10.5l-11.99,20.1c-1.12,1.88-2.57,4.08-4.63,4.08h-11.56c-2.06,0-3.48-2.2-4.6-4.08l-11.99-20.09h0s44.78-.01,44.78-.01h0Z"/>
      <path class="cls-1" d="M518.65,206.29l11.99-20.1c1.12-1.88,2.57-4.08,4.63-4.08h11.57c2.06,0,3.48,2.2,4.6,4.08l11.99,20.09h0s-44.78,0-44.78,0h0Z"/>
      <path class="cls-1" d="M901.66,83.42c-13.79,0-24.98,11.19-24.98,24.98s11.18,24.98,24.98,24.98,24.98-11.19,24.98-24.98-11.18-24.98-24.98-24.98h0Z"/>
      <path class="cls-1" d="M911.99,42.86c-6.95-1.1-13.92-1.06-20.68.01v-.02s-9.98-13.04-9.98-13.04c-1.37-1.78-3.26-3.07-5.33-2.21l-13.31,5.51c-2.07.86-2.54,3.12-2.24,5.35l2.17,16.28v.02c-5.53,4.02-10.48,8.93-14.62,14.62h-.02s-16.27-2.18-16.27-2.18c-2.23-.3-4.47.13-5.33,2.21l-5.51,13.31c-.86,2.07.42,4,2.2,5.36l13.05,9.98h0c-1.1,6.95-1.06,13.92.01,20.68h-.03s-13.04,9.98-13.04,9.98c-1.78,1.36-3.07,3.26-2.21,5.33l5.51,13.31c.86,2.08,3.12,2.54,5.35,2.24l16.28-2.17h.02c4.02,5.53,8.92,10.48,14.6,14.62h0s-2.18,16.29-2.18,16.29c-.3,2.22.17,4.49,2.24,5.35l13.31,5.51c2.07.86,3.97-.42,5.33-2.21l9.97-13.04h0c6.95,1.1,13.92,1.06,20.69-.01h0s9.97,13.06,9.97,13.06c1.36,1.78,3.29,3.05,5.37,2.19l13.31-5.51c2.07-.86,2.51-3.11,2.21-5.33l-2.17-16.28h0c5.54-4.02,10.5-8.93,14.64-14.63l16.27,2.17c2.22.3,4.49-.17,5.35-2.24l5.51-13.31c.86-2.07-.42-3.97-2.21-5.33l-13.04-9.97c1.1-6.95,1.07-13.93,0-20.7l13.05-9.97c1.78-1.36,3.05-3.3,2.2-5.37l-5.51-13.31c-.86-2.07-3.11-2.51-5.33-2.21l-16.28,2.17h0c-4.02-5.54-8.93-10.5-14.63-14.64h0s2.17-16.28,2.17-16.28c.3-2.23-.13-4.47-2.21-5.33l-13.31-5.51c-2.07-.86-4,.41-5.36,2.2l-9.98,13.05h0ZM915.18,75.77c-18.02-7.46-38.69,1.1-46.16,19.12-7.46,18.02,1.1,38.69,19.12,46.16,18.02,7.46,38.69-1.1,46.16-19.12,7.46-18.02-1.1-38.69-19.12-46.16h0Z"/>
      <path class="cls-1" d="M879.26,10.5l11.99,20.1c1.12,1.88,2.57,4.08,4.63,4.08h11.57c2.06,0,3.48-2.2,4.6-4.08l11.99-20.09h0s-44.78,0-44.78,0h0Z"/>
      <path class="cls-1" d="M955.04,23.33l-5.73,22.69c-.53,2.12-1.06,4.71.39,6.16l8.18,8.18c1.45,1.46,4.01.91,6.14.37l22.68-5.73h0s-31.66-31.67-31.66-31.67h0Z"/>
      <path class="cls-1" d="M999.56,85.99l-20.1,11.99c-1.87,1.12-4.08,2.57-4.08,4.63v11.57c0,2.06,2.2,3.48,4.08,4.6l20.09,11.99h0v-44.78h0Z"/>
      <path class="cls-1" d="M986.73,161.78l-22.69-5.73c-2.12-.54-4.71-1.06-6.16.39l-8.18,8.18c-1.46,1.46-.91,4.01-.37,6.14l5.73,22.68h0s31.66-31.66,31.66-31.66h0Z"/>
      <path class="cls-1" d="M924.07,206.29l-11.99-20.1c-1.12-1.88-2.57-4.08-4.63-4.08h-11.57c-2.06,0-3.48,2.2-4.6,4.08l-11.99,20.09h0s44.78,0,44.78,0h0Z"/>
      <path class="cls-1" d="M807.14,10.5l11.99,20.1c1.12,1.88,2.57,4.08,4.63,4.08h11.57c2.06,0,3.48-2.2,4.6-4.08l11.99-20.09h0s-44.78,0-44.78,0h0Z"/>
      <path class="cls-1" d="M851.95,206.29l-11.99-20.1c-1.12-1.88-2.57-4.08-4.63-4.08h-11.57c-2.06,0-3.48,2.2-4.6,4.08l-11.99,20.09h0s44.78,0,44.78,0h0Z"/>
      <path class="cls-1" d="M735.03,10.5l11.99,20.1c1.12,1.88,2.57,4.08,4.63,4.08h11.57c2.06,0,3.48-2.2,4.6-4.08l11.99-20.09h0s-44.78,0-44.78,0h0Z"/>
      <path class="cls-1" d="M779.84,206.29l-11.99-20.1c-1.12-1.88-2.57-4.08-4.63-4.08h-11.57c-2.06,0-3.48,2.2-4.6,4.08l-11.99,20.09h0s44.78,0,44.78,0h0Z"/>
      <path class="cls-1" d="M662.92,10.5l11.99,20.1c1.12,1.88,2.57,4.08,4.63,4.08h11.57c2.06,0,3.48-2.2,4.6-4.08l11.99-20.09h0s-44.78,0-44.78,0h0Z"/>
      <path class="cls-1" d="M707.73,206.29l-11.99-20.1c-1.12-1.88-2.57-4.08-4.63-4.08h-11.57c-2.06,0-3.48,2.2-4.6,4.08l-11.99,20.09h0s44.78,0,44.78,0h0Z"/>
      <path class="cls-1" d="M590.8,10.5l11.99,20.1c1.12,1.88,2.57,4.08,4.63,4.08h11.57c2.06,0,3.48-2.2,4.6-4.08l11.99-20.09h0s-44.78,0-44.78,0h0Z"/>
      <path class="cls-1" d="M635.62,206.29l-11.99-20.1c-1.12-1.88-2.57-4.08-4.63-4.08h-11.57c-2.06,0-3.48,2.2-4.6,4.08l-11.99,20.09h0s44.78,0,44.78,0h0Z"/>
      <path class="cls-1" d="M108.38,200.74c-50.99,0-92.34-41.35-92.34-92.34S57.4,16.06,108.38,16.06h793.28c50.99,0,92.34,41.35,92.34,92.34s-41.35,92.34-92.34,92.34c-264.43,0-528.85,0-793.28,0h0ZM108.38,0C48.53,0,0,48.54,0,108.4s48.53,108.39,108.38,108.4h793.28c59.85,0,108.38-48.54,108.38-108.4S961.51,0,901.66,0H108.38Z"/>
    </g>
  </g>
</svg>