<?xml version="1.0" encoding="utf-8"?>
<!-- Generator: Adobe Illustrator 26.1.0, SVG Export Plug-In . SVG Version: 6.00 Build 0)  -->
<svg version="1.1" id="Final_Concept" xmlns="http://www.w3.org/2000/svg" xmlns:xlink="http://www.w3.org/1999/xlink" x="0px"
	 y="0px" viewBox="0 0 1119.9 944.9" style="enable-background:new 0 0 1119.9 944.9;" xml:space="preserve">
<style type="text/css">
	.st0{opacity:0.71;}
	.st1{fill-rule:evenodd;clip-rule:evenodd;fill:#FFFFFF;}
	.st2{fill:#FFFFFF;}
</style>
<g>
	<g class="st0">
		<path class="st1" d="M472.4,181.7V401c15.1,7,26.3,19.7,30.7,36.4c1.9,7.2,3.1,6.1-9.4,8c-5.8,0.9-11.4,1.8-12.6,2
			c-1.9,0.4-2.4-0.4-4.4-6c-1.2-3.3-2.6-6.2-4.3-8.8v83.7c3-4.3,5.4-9.6,7-15.9c1.7-6.8,1.7-6.8,4.8-6.3c1.7,0.3,7.5,1.1,12.8,1.7
			c6.3,0.8,9.7,1.6,9.7,2.4c0,16.7-16.2,40.2-33.2,48.4c-0.4,0.2-0.7,0.3-1.1,0.5v220.2l405.1-292.8L472.4,181.7z M719.6,549.8
			h-12.9l-0.4-55.2c-0.5-60.3-0.5-60.7-6.3-67.5c-14.6-17-44.6-8.5-53.2,15l-2.7,7.3l-0.3,50.2l-0.3,50.2h-12.9h-12.9l0-47.7
			c0-60.7-0.9-69.1-8.3-77c-9.3-10-31.5-8.3-43.1,3.4c-10.5,10.5-11.5,17.3-11.5,74.8v46.5h-13.5h-13.5v-75.4v-75.4h12h12v9.6v9.6
			l3.5-4.2c7.3-8.7,19.8-16.1,30.4-17.8c23.1-3.8,44.1,4.5,51.6,20.3c2.1,4.4,2.1,4.4,6.3-1.1c21.2-27.5,69.1-26.7,83.2,1.3
			c5.4,10.7,5.7,14.3,5.7,76.1v57H719.6z"/>
	</g>
</g>
<g>
	<g>
		<path class="st2" d="M527.7,523.6v-14.7h-22.8c-1.5,4.9-4,9.9-7,14.7H527.7z M643.5,535.4l8.1,8.1v0.4h55l-0.1-15.1h-48.2
			l-14.7-14.6L643.5,535.4z M554.7,549.8h-1c0.5,12.5,10.8,22.5,23.5,22.6c13,0,23.6-10.5,23.6-23.5c0-13-10.5-23.6-23.5-23.6
			c-3.8,0-7.4,0.9-10.6,2.5l-11.9-11.9v20.8l1.5,1.5c-0.6,1.2-1.1,2.4-1.5,3.7V549.8z M577.2,537c6.5,0,11.8,5.3,11.8,11.8
			c0,6.5-5.3,11.8-11.8,11.7c-6.5,0-11.8-5.3-11.8-11.8C565.4,542.3,570.7,537,577.2,537z M840.6,295c-13,0-23.6,10.5-23.6,23.5
			c0,13,10.5,23.5,23.5,23.5c3.1,0,6-0.6,8.7-1.6l47.6,47.5c-1.8,3.3-2.8,7.1-2.8,11.2c0,13,10.5,23.5,23.5,23.5
			c13,0,23.6-10.5,23.6-23.5c0-13-10.5-23.6-23.5-23.6c-3.5,0-6.8,0.8-9.7,2.1l-47.1-47c2.1-3.5,3.4-7.7,3.4-12.1
			C864.2,305.6,853.6,295,840.6,295z M840.6,330.3c-6.5,0-11.8-5.3-11.8-11.8c0-6.5,5.3-11.8,11.8-11.8c6.5,0,11.8,5.3,11.8,11.8
			C852.4,325.1,847.1,330.3,840.6,330.3z M917.6,387.3c6.5,0,11.8,5.3,11.8,11.8c0,6.5-5.3,11.8-11.8,11.7
			c-6.5,0-11.8-5.3-11.8-11.8C905.8,392.6,911.1,387.3,917.6,387.3z M610.4,293l0.2,0.2l82.5-82.5h33.8c3.1,9.3,11.9,16,22.3,16
			c13,0,23.6-10.5,23.6-23.5s-10.5-23.6-23.5-23.6c-10.4,0-19.2,6.7-22.3,16H686v0.9l-81.6,81.6H472.6v15.1h137.8V293z M749.2,191.4
			c6.5,0,11.8,5.3,11.8,11.8c0,6.5-5.3,11.8-11.8,11.8c-6.5,0-11.8-5.3-11.8-11.8C737.4,196.7,742.7,191.4,749.2,191.4z
			 M633.4,320.8c-2.9-9.7-11.9-16.8-22.5-16.8c-13,0-23.6,10.5-23.6,23.5c0,13,10.5,23.5,23.5,23.5c10.1,0,18.7-6.3,22.1-15.2h105v0
			l0,0l51.6-51.5c3.1,1.6,6.7,2.4,10.4,2.4c13,0,23.6-10.5,23.6-23.5c0-13-10.5-23.6-23.5-23.6c-13,0-23.6,10.5-23.6,23.5
			c0,3.8,0.9,7.3,2.4,10.5l-47.2,47.1H633.4z M610.8,339.3c-6.5,0-11.8-5.3-11.8-11.8c0-6.5,5.3-11.8,11.8-11.8
			c6.5,0,11.8,5.3,11.8,11.8C622.6,334,617.3,339.3,610.8,339.3z M799.9,251.4c6.5,0,11.8,5.3,11.8,11.8c0,6.5-5.3,11.8-11.8,11.7
			c-6.5,0-11.8-5.3-11.8-11.8C788.1,256.7,793.4,251.4,799.9,251.4z M732.4,461.5l40.8-10.9c4.3,5.2,10.8,8.4,18,8.5
			c13,0,23.6-10.5,23.6-23.5c0-13-10.5-23.6-23.5-23.6c-13,0-23.6,10.5-23.6,23.5c0,0.3,0,0.6,0,0.9l-35.6,9.5
			C732.3,450.3,732.4,455.4,732.4,461.5z M791.3,423.8c6.5,0,11.8,5.3,11.8,11.8c0,6.5-5.3,11.8-11.8,11.7
			c-6.5,0-11.8-5.3-11.8-11.8C779.5,429,784.8,423.8,791.3,423.8z M1119.9,477.8l-21.2-21.2l-0.5,0.5L659.6,18.5l-20.9,20.9
			l438.6,438.6L649.1,906.2l21.2,21.2l428.2-428.2l0.5,0.5l20.9-20.9l-0.5-0.5L1119.9,477.8z M842.4,436c-0.9,2.5-1.5,5.3-1.5,8.2
			c0,13,10.5,23.5,23.5,23.5c13,0,23.6-10.5,23.6-23.5c0-13-10.5-23.6-23.5-23.6c-4.6,0-8.9,1.3-12.5,3.6l-55.8-55.7v-0.2H472.4V0
			L0,472.4l472.4,472.4V547.1c-43.3,19.8-88.8-5.3-96.1-53.3c-8.1-52.9,13.9-91.3,56-97.8c14.7-2.3,28.5-0.3,40.1,5v-17.5h317.3
			L842.4,436z M864.5,432.4c6.5,0,11.8,5.3,11.8,11.8c0,6.5-5.3,11.8-11.8,11.7c-6.5,0-11.8-5.3-11.8-11.8
			C852.8,437.7,858,432.4,864.5,432.4z M472.3,184.6c-174,0-315,129.1-315,288.4s141.1,288.4,315,288.4v20.1
			c-186.1,0-337-138.1-337-308.5s150.9-308.5,337-308.5V184.6z M316.8,444.4c-0.8-19-11.5-26.9-36.3-26.8
			c-20.4,0-30.8,7.1-36.4,24.6c-1.2,3.7-1.4,3.8-4.9,3.3c-2-0.3-7.8-1.1-12.9-1.8c-10.2-1.3-10-1.1-7.6-8.9
			c6.7-22.7,22.8-34.8,51.6-38.9c24-3.4,52.7,2.8,62.7,13.7c10.1,10.9,10.1,10.8,11,66.8c0.8,50.1,1.3,56.8,5.4,66.5
			c1.4,3.2,2.5,6.1,2.5,6.4c0,0.3-6.2,0.5-13.8,0.5h-13.8l-1.7-4.7c-0.9-2.6-2-6.6-2.3-8.9l-0.6-4.1l-6.5,4.9
			c-22.8,17.2-56.1,21.5-78.5,10.2c-28.7-14.5-29.7-56.7-1.7-73.8c10.5-6.4,15.4-7.7,47.9-12.5c11.3-1.7,24-4,28.3-5.1l7.9-2.1
			L316.8,444.4z M917.5,500.1c13,0,23.6-10.5,23.6-23.5S930.6,453,917.6,453c-13,0-23.6,10.5-23.6,23.5c0,1.1,0.1,2.2,0.2,3.3
			l-70.1,49h-91.6v15.1h97.1v-0.5l71.5-50C905.3,497.5,911.1,500.1,917.5,500.1z M917.6,464.8c6.5,0,11.8,5.3,11.8,11.8
			c0,6.5-5.3,11.8-11.8,11.7c-6.5,0-11.8-5.3-11.8-11.8C905.8,470.1,911.1,464.8,917.6,464.8z M534.3,351c13,0,23.6-10.5,23.6-23.5
			c0-13-10.5-23.6-23.5-23.6c-10.7,0-19.8,7.2-22.6,17h-39.2v14.7h39.7C515.6,344.6,524.2,351,534.3,351z M534.4,315.7
			c6.5,0,11.8,5.3,11.8,11.8c0,6.5-5.3,11.8-11.8,11.7c-6.5,0-11.8-5.3-11.8-11.8C522.6,321,527.9,315.7,534.4,315.7z M241,509.6
			c0,26.3,44.7,31.1,66.4,7c6.7-7.4,8.7-13.8,9.3-29.1c0.3-7,0.3-12.7,0.1-12.7c-0.2,0-1.5,0.5-2.9,1.1c-4.4,1.8-22.1,5.7-35.5,7.9
			C249.5,488.6,241,494.4,241,509.6z M779.8,708.4c13,0,23.6-10.5,23.6-23.5c0-13-10.5-23.6-23.5-23.6c-10.6,0-19.5,6.9-22.5,16.5
			H616.3c-3.2-9.1-11.9-15.7-22.2-15.7c-13,0-23.6,10.5-23.6,23.5c0,13,10.5,23.5,23.5,23.5c10.5,0,19.4-6.8,22.4-16.3h141.3
			C761,701.9,769.7,708.4,779.8,708.4z M779.9,673.1c6.5,0,11.8,5.3,11.8,11.8c0,6.5-5.3,11.8-11.8,11.7c-6.5,0-11.8-5.3-11.8-11.8
			C768.1,678.3,773.4,673.1,779.9,673.1z M594.1,697.4c-6.5,0-11.8-5.3-11.8-11.8c0-6.5,5.3-11.8,11.8-11.8
			c6.5,0,11.8,5.3,11.8,11.8C605.8,692.2,600.6,697.4,594.1,697.4z M534.4,661.3c-10.7,0-19.8,7.2-22.6,17h-39.2V693h39.7
			c3.3,9,11.9,15.4,22.1,15.4c13,0,23.6-10.5,23.6-23.5C557.9,671.9,547.4,661.3,534.4,661.3z M534.4,696.6
			c-6.5,0-11.8-5.3-11.8-11.8c0-6.5,5.3-11.8,11.8-11.8c6.5,0,11.8,5.3,11.8,11.8C546.2,691.4,540.9,696.6,534.4,696.6z
			 M404.3,452.9c-2.2,10.1-2.2,32.9,0,42.9c8.4,38.9,49.8,47,68.2,20.6v-83.7C455,405.3,412.5,415.1,404.3,452.9z M705.7,453.1
			l-30.4,8.1c-4.3-5-10.7-8.2-17.8-8.2c-5,0-9.6,1.6-13.4,4.2l-0.2,38.5c3.8,2.7,8.5,4.4,13.6,4.4c13,0,23.6-10.5,23.6-23.5
			c0-0.4,0-0.9,0-1.3l25.1-6.7C705.9,462.4,705.9,457.3,705.7,453.1z M657.4,488.3c-6.5,0-11.8-5.3-11.8-11.8
			c0-6.5,5.3-11.8,11.8-11.8c6.5,0,11.8,5.3,11.8,11.8C669.2,483.1,663.9,488.3,657.4,488.3z M898.2,560.4c0-13-10.5-23.6-23.5-23.6
			c-13,0-23.6,10.5-23.6,23.5c0,2.9,0.5,5.7,1.5,8.3l-27.1,18.1h-353v14.1h363.9v-1.4l27.3-18.3c3.2,1.7,6.9,2.7,10.8,2.7
			C887.7,583.9,898.2,573.4,898.2,560.4z M874.7,572.1c-1.2,0-2.4-0.2-3.5-0.5l-5.5-3.7c-1.7-2-2.8-4.7-2.8-7.6
			c0-6.5,5.3-11.8,11.8-11.8c6.5,0,11.8,5.3,11.8,11.8C886.5,566.8,881.2,572.1,874.7,572.1z M527.7,455.3h-55.1v15.1h55.1V455.3z
			 M472.6,516.2c1.5-2.2,2.8-4.6,4-7.3h-4V516.2z M832.9,630.7H472.6v14.7h360.4c3.5,9.4,13.4,16.2,25.1,16.2
			c14.6,0,26.5-10.5,26.5-23.5s-11.9-23.6-26.5-23.6C846.4,614.5,836.4,621.3,832.9,630.7z M871.3,638.1c0,6.5-5.9,11.8-13.2,11.8
			s-13.2-5.3-13.2-11.8s5.9-11.8,13.2-11.8C865.4,626.3,871.3,631.6,871.3,638.1z M555.7,455.3c-0.3,4.2-0.6,9.1-0.7,15.1h23.5
			l39.1,39.1l0-7.4c0-5,0-9.6,0-14l-32.8-32.8l0,0v0H555.7z"/>
	</g>
</g>
</svg>
